<?xml version="1.0" encoding="UTF-8"?>
<svg id="Capa_1" xmlns="http://www.w3.org/2000/svg" version="1.1" xmlns:xlink="http://www.w3.org/1999/xlink" viewBox="0 0 566.9 566.9">
  <!-- Generator: Adobe Illustrator 30.8.1, SVG Export Plug-In . SVG Version: 2.1.4 Build 1)  -->
  <defs>
    <style>
      .st0, .st1 {
        fill: #008ecf;
      }

      .st1, .st2 {
        fill-rule: evenodd;
      }

      .st3 {
        fill: #1d1d1b;
      }

      .st2 {
        fill: #fff;
      }

      .st4 {
        clip-rule: evenodd;
        fill: none;
      }

      .st5 {
        clip-path: url(#clippath);
      }
    </style>
    <clipPath id="clippath">
      <path class="st4" d="M222.6,314v-67.3c0-1-.3-1.9-1-2.5-.6-.6-1.5-.9-2.5-.9h-9.1c-1,0-1.9.2-2.6.7-.7.5-1.3,1.1-1.7,1.9l-14.8,27.6c-.2.4-.4.7-.5.9-.2.2-.3.3-.5.3s-.4-.1-.5-.3c-.2-.2-.3-.5-.5-.9l-14.8-27.6c-.4-.8-1-1.5-1.7-1.9-.7-.5-1.6-.7-2.6-.7h-9.1c-1,0-1.9.3-2.5.9-.6.6-1,1.4-1,2.4v67.4c0,.5.2.9.5,1.1.3.2.7.3,1.1.3h12.8c.5,0,.8-.2,1.1-.6.3-.4.4-.8.5-1.4v-40.4c0-.3,0-.5.2-.6.1,0,.2-.1.3-.1.1,0,.3,0,.4.2.1,0,.2.3.4.5l8.7,16c.3.6.8,1,1.2,1.3.5.3,1,.4,1.7.4h7.8c.6,0,1.2-.1,1.7-.4.5-.3.9-.7,1.2-1.3l8.7-16c.1-.2.3-.4.4-.5.1-.1.2-.2.4-.2.1,0,.2,0,.3.1,0,0,.2.3.2.6v40.4c0,.5.2,1,.5,1.4.3.4.7.5,1.1.6h12.8c.4,0,.8,0,1.1-.3.3-.2.5-.6.5-1.1Z"/>
    </clipPath>
  </defs>
  <path class="st1" d="M280.1,312.9v-9c0-.5-.2-1-.6-1.4-.4-.4-.8-.5-1.4-.6h-19.7c-1.5,0-2.7-.2-3.6-.6-.9-.4-1.6-1.1-2-2.1-.4-1-.6-2.3-.6-3.9v-10.3h25.1c.5,0,1-.2,1.4-.6.4-.4.5-.8.6-1.4v-9.2c0-.5-.2-1-.6-1.4-.4-.4-.8-.5-1.4-.6h-25.1v-8.8c0-1.7.2-3,.6-4,.4-1,1.1-1.6,2-2.1.9-.4,2.1-.6,3.6-.6h19.7c.5,0,1-.2,1.4-.6.4-.4.5-.8.6-1.4v-9c0-.6-.1-1.1-.5-1.4-.3-.3-.8-.5-1.5-.6-1.1-.2-2.5-.4-4-.5-1.6-.2-3.6-.4-5.9-.5-2.4-.1-5.3-.2-8.8-.2-2.5,0-4.9.1-7.3.5-2.3.3-4.5.9-6.5,1.7-2,.9-3.7,2.1-5.2,3.6-1.5,1.6-2.6,3.6-3.5,6-.8,2.4-1.2,5.4-1.3,8.9v32.2c0,3.5.4,6.5,1.2,8.9.8,2.5,2,4.5,3.4,6,1.5,1.5,3.2,2.8,5.2,3.6,2,.9,4.1,1.5,6.4,1.8,2.3.3,4.7.5,7.3.5,3.5,0,6.4,0,8.8-.2,2.4-.1,4.4-.3,6-.5,1.6-.2,2.9-.4,4.1-.5.7,0,1.2-.3,1.5-.6.3-.3.5-.8.5-1.4Z"/>
  <path class="st2" d="M222.6,314v-67.3c0-1-.3-1.9-1-2.5-.6-.6-1.5-.9-2.5-.9h-9.1c-1,0-1.9.2-2.6.7-.7.5-1.3,1.1-1.7,1.9l-14.8,27.6c-.2.4-.4.7-.5.9-.2.2-.3.3-.5.3s-.4-.1-.5-.3c-.2-.2-.3-.5-.5-.9l-14.8-27.6c-.4-.8-1-1.5-1.7-1.9-.7-.5-1.6-.7-2.6-.7h-9.1c-1,0-1.9.3-2.5.9-.6.6-1,1.4-1,2.4v67.4c0,.5.2.9.5,1.1.3.2.7.3,1.1.3h12.8c.5,0,.8-.2,1.1-.6.3-.4.4-.8.5-1.4v-40.4c0-.3,0-.5.2-.6.1,0,.2-.1.3-.1.1,0,.3,0,.4.2.1,0,.2.3.4.5l8.7,16c.3.6.8,1,1.2,1.3.5.3,1,.4,1.7.4h7.8c.6,0,1.2-.1,1.7-.4.5-.3.9-.7,1.2-1.3l8.7-16c.1-.2.3-.4.4-.5.1-.1.2-.2.4-.2.1,0,.2,0,.3.1,0,0,.2.3.2.6v40.4c0,.5.2,1,.5,1.4.3.4.7.5,1.1.6h12.8c.4,0,.8,0,1.1-.3.3-.2.5-.6.5-1.1Z"/>
  <g class="st5">
    <g>
      <g>
        <path class="st1" d="M118.1,281.6c1.1,0,1.9-.9,1.9-1.9s-.9-1.9-1.9-1.9-1.9.9-1.9,1.9.9,1.9,1.9,1.9Z"/>
        <path class="st1" d="M124.6,281.6c1.1,0,1.9-.9,1.9-1.9s-.9-1.9-1.9-1.9-1.9.9-1.9,1.9.9,1.9,1.9,1.9Z"/>
        <path class="st1" d="M131.2,281.6c1.1,0,1.9-.9,1.9-1.9s-.9-1.9-1.9-1.9-1.9.9-1.9,1.9.9,1.9,1.9,1.9Z"/>
        <path class="st1" d="M137.7,281.6c1.1,0,1.9-.9,1.9-1.9s-.9-1.9-1.9-1.9-1.9.9-1.9,1.9.9,1.9,1.9,1.9Z"/>
        <path class="st1" d="M144.2,281.6c1.1,0,1.9-.9,1.9-1.9s-.9-1.9-1.9-1.9-1.9.9-1.9,1.9.9,1.9,1.9,1.9Z"/>
        <path class="st1" d="M150.8,281.6c1.1,0,1.9-.9,1.9-1.9s-.9-1.9-1.9-1.9-1.9.9-1.9,1.9.9,1.9,1.9,1.9Z"/>
        <path class="st1" d="M157.3,281.6c1.1,0,1.9-.9,1.9-1.9s-.9-1.9-1.9-1.9-1.9.9-1.9,1.9.9,1.9,1.9,1.9Z"/>
        <path class="st1" d="M163.8,281.6c1.1,0,1.9-.9,1.9-1.9s-.9-1.9-1.9-1.9-1.9.9-1.9,1.9.9,1.9,1.9,1.9Z"/>
        <path class="st1" d="M170.4,281.6c1.1,0,1.9-.9,1.9-1.9s-.9-1.9-1.9-1.9-1.9.9-1.9,1.9.9,1.9,1.9,1.9Z"/>
        <path class="st1" d="M176.9,281.6c1.1,0,1.9-.9,1.9-1.9s-.9-1.9-1.9-1.9-1.9.9-1.9,1.9.9,1.9,1.9,1.9Z"/>
        <path class="st1" d="M183.4,281.6c1.1,0,1.9-.9,1.9-1.9s-.9-1.9-1.9-1.9-1.9.9-1.9,1.9.9,1.9,1.9,1.9Z"/>
        <path class="st1" d="M190,281.6c1.1,0,1.9-.9,1.9-1.9s-.9-1.9-1.9-1.9-1.9.9-1.9,1.9.9,1.9,1.9,1.9Z"/>
        <circle class="st0" cx="121.3" cy="274" r="1.9"/>
        <path class="st1" d="M127.8,275.9c1.1,0,1.9-.9,1.9-1.9s-.9-1.9-1.9-1.9-1.9.9-1.9,1.9.9,1.9,1.9,1.9Z"/>
        <path class="st1" d="M134.3,275.9c1.1,0,1.9-.9,1.9-1.9s-.9-1.9-1.9-1.9-1.9.9-1.9,1.9.9,1.9,1.9,1.9Z"/>
        <path class="st1" d="M140.9,275.9c1.1,0,1.9-.9,1.9-1.9s-.9-1.9-1.9-1.9-1.9.9-1.9,1.9.9,1.9,1.9,1.9Z"/>
        <path class="st1" d="M147.4,275.9c1.1,0,1.9-.9,1.9-1.9s-.9-1.9-1.9-1.9-1.9.9-1.9,1.9.9,1.9,1.9,1.9Z"/>
        <path class="st1" d="M153.9,275.9c1.1,0,1.9-.9,1.9-1.9s-.9-1.9-1.9-1.9-1.9.9-1.9,1.9.9,1.9,1.9,1.9Z"/>
        <circle class="st0" cx="160.5" cy="274" r="1.9"/>
        <path class="st1" d="M167,275.9c1.1,0,1.9-.9,1.9-1.9s-.9-1.9-1.9-1.9-1.9.9-1.9,1.9.9,1.9,1.9,1.9Z"/>
        <path class="st1" d="M173.5,275.9c1.1,0,1.9-.9,1.9-1.9s-.9-1.9-1.9-1.9-1.9.9-1.9,1.9.9,1.9,1.9,1.9Z"/>
        <path class="st1" d="M180.1,275.9c1.1,0,1.9-.9,1.9-1.9s-.9-1.9-1.9-1.9-1.9.9-1.9,1.9.9,1.9,1.9,1.9Z"/>
        <circle class="st0" cx="186.6" cy="274" r="1.9"/>
        <path class="st1" d="M193.1,275.9c1.1,0,1.9-.9,1.9-1.9s-.9-1.9-1.9-1.9-1.9.9-1.9,1.9.9,1.9,1.9,1.9Z"/>
        <path class="st1" d="M118.1,270.1c1.1,0,1.9-.9,1.9-1.9s-.9-1.9-1.9-1.9-1.9.9-1.9,1.9.9,1.9,1.9,1.9Z"/>
        <path class="st1" d="M124.6,270.1c1.1,0,1.9-.9,1.9-1.9s-.9-1.9-1.9-1.9-1.9.9-1.9,1.9.9,1.9,1.9,1.9Z"/>
        <path class="st1" d="M131.2,270.1c1.1,0,1.9-.9,1.9-1.9s-.9-1.9-1.9-1.9-1.9.9-1.9,1.9.9,1.9,1.9,1.9Z"/>
        <path class="st1" d="M137.7,270.1c1.1,0,1.9-.9,1.9-1.9s-.9-1.9-1.9-1.9-1.9.9-1.9,1.9.9,1.9,1.9,1.9Z"/>
        <path class="st1" d="M144.2,270.1c1.1,0,1.9-.9,1.9-1.9s-.9-1.9-1.9-1.9-1.9.9-1.9,1.9.9,1.9,1.9,1.9Z"/>
        <path class="st1" d="M150.8,270.1c1.1,0,1.9-.9,1.9-1.9s-.9-1.9-1.9-1.9-1.9.9-1.9,1.9.9,1.9,1.9,1.9Z"/>
        <path class="st1" d="M157.3,270.1c1.1,0,1.9-.9,1.9-1.9s-.9-1.9-1.9-1.9-1.9.9-1.9,1.9.9,1.9,1.9,1.9Z"/>
        <path class="st1" d="M163.8,270.1c1.1,0,1.9-.9,1.9-1.9s-.9-1.9-1.9-1.9-1.9.9-1.9,1.9.9,1.9,1.9,1.9Z"/>
        <path class="st1" d="M170.4,270.1c1.1,0,1.9-.9,1.9-1.9s-.9-1.9-1.9-1.9-1.9.9-1.9,1.9.9,1.9,1.9,1.9Z"/>
        <path class="st1" d="M176.9,270.1c1.1,0,1.9-.9,1.9-1.9s-.9-1.9-1.9-1.9-1.9.9-1.9,1.9.9,1.9,1.9,1.9Z"/>
        <path class="st1" d="M183.4,270.1c1.1,0,1.9-.9,1.9-1.9s-.9-1.9-1.9-1.9-1.9.9-1.9,1.9.9,1.9,1.9,1.9Z"/>
        <path class="st1" d="M190,270.1c1.1,0,1.9-.9,1.9-1.9s-.9-1.9-1.9-1.9-1.9.9-1.9,1.9.9,1.9,1.9,1.9Z"/>
        <path class="st1" d="M121.3,264.5c1.1,0,1.9-.9,1.9-1.9s-.9-1.9-1.9-1.9-1.9.9-1.9,1.9.9,1.9,1.9,1.9Z"/>
        <path class="st1" d="M127.8,264.5c1.1,0,1.9-.9,1.9-1.9s-.9-1.9-1.9-1.9-1.9.9-1.9,1.9.9,1.9,1.9,1.9Z"/>
        <path class="st1" d="M134.3,264.5c1.1,0,1.9-.9,1.9-1.9s-.9-1.9-1.9-1.9-1.9.9-1.9,1.9.9,1.9,1.9,1.9Z"/>
        <path class="st1" d="M140.9,264.5c1.1,0,1.9-.9,1.9-1.9s-.9-1.9-1.9-1.9-1.9.9-1.9,1.9.9,1.9,1.9,1.9Z"/>
        <path class="st1" d="M147.4,264.5c1.1,0,1.9-.9,1.9-1.9s-.9-1.9-1.9-1.9-1.9.9-1.9,1.9.9,1.9,1.9,1.9Z"/>
        <path class="st1" d="M153.9,264.5c1.1,0,1.9-.9,1.9-1.9s-.9-1.9-1.9-1.9-1.9.9-1.9,1.9.9,1.9,1.9,1.9Z"/>
        <path class="st1" d="M160.5,264.5c1.1,0,1.9-.9,1.9-1.9s-.9-1.9-1.9-1.9-1.9.9-1.9,1.9.9,1.9,1.9,1.9Z"/>
        <path class="st1" d="M167,264.5c1.1,0,1.9-.9,1.9-1.9s-.9-1.9-1.9-1.9-1.9.9-1.9,1.9.9,1.9,1.9,1.9Z"/>
        <path class="st1" d="M173.5,264.5c1.1,0,1.9-.9,1.9-1.9s-.9-1.9-1.9-1.9-1.9.9-1.9,1.9.9,1.9,1.9,1.9Z"/>
        <path class="st1" d="M180.1,264.5c1.1,0,1.9-.9,1.9-1.9s-.9-1.9-1.9-1.9-1.9.9-1.9,1.9.9,1.9,1.9,1.9Z"/>
        <path class="st1" d="M186.6,264.5c1.1,0,1.9-.9,1.9-1.9s-.9-1.9-1.9-1.9-1.9.9-1.9,1.9.9,1.9,1.9,1.9Z"/>
        <path class="st1" d="M193.1,264.5c1.1,0,1.9-.9,1.9-1.9s-.9-1.9-1.9-1.9-1.9.9-1.9,1.9.9,1.9,1.9,1.9Z"/>
      </g>
      <g>
        <path class="st1" d="M118.1,259c1.1,0,1.9-.9,1.9-1.9s-.9-1.9-1.9-1.9-1.9.9-1.9,1.9.9,1.9,1.9,1.9Z"/>
        <path class="st1" d="M124.6,259c1.1,0,1.9-.9,1.9-1.9s-.9-1.9-1.9-1.9-1.9.9-1.9,1.9.9,1.9,1.9,1.9Z"/>
        <path class="st1" d="M131.2,259c1.1,0,1.9-.9,1.9-1.9s-.9-1.9-1.9-1.9-1.9.9-1.9,1.9.9,1.9,1.9,1.9Z"/>
        <path class="st1" d="M137.7,259c1.1,0,1.9-.9,1.9-1.9s-.9-1.9-1.9-1.9-1.9.9-1.9,1.9.9,1.9,1.9,1.9Z"/>
        <path class="st1" d="M144.2,259c1.1,0,1.9-.9,1.9-1.9s-.9-1.9-1.9-1.9-1.9.9-1.9,1.9.9,1.9,1.9,1.9Z"/>
        <path class="st1" d="M150.8,259c1.1,0,1.9-.9,1.9-1.9s-.9-1.9-1.9-1.9-1.9.9-1.9,1.9.9,1.9,1.9,1.9Z"/>
        <path class="st1" d="M157.3,259c1.1,0,1.9-.9,1.9-1.9s-.9-1.9-1.9-1.9-1.9.9-1.9,1.9.9,1.9,1.9,1.9Z"/>
        <path class="st1" d="M163.8,259c1.1,0,1.9-.9,1.9-1.9s-.9-1.9-1.9-1.9-1.9.9-1.9,1.9.9,1.9,1.9,1.9Z"/>
        <path class="st1" d="M170.4,259c1.1,0,1.9-.9,1.9-1.9s-.9-1.9-1.9-1.9-1.9.9-1.9,1.9.9,1.9,1.9,1.9Z"/>
        <path class="st1" d="M176.9,259c1.1,0,1.9-.9,1.9-1.9s-.9-1.9-1.9-1.9-1.9.9-1.9,1.9.9,1.9,1.9,1.9Z"/>
        <path class="st1" d="M183.4,259c1.1,0,1.9-.9,1.9-1.9s-.9-1.9-1.9-1.9-1.9.9-1.9,1.9.9,1.9,1.9,1.9Z"/>
        <path class="st1" d="M190,259c1.1,0,1.9-.9,1.9-1.9s-.9-1.9-1.9-1.9-1.9.9-1.9,1.9.9,1.9,1.9,1.9Z"/>
        <path class="st1" d="M121.3,253.4c1.1,0,1.9-.9,1.9-1.9s-.9-1.9-1.9-1.9-1.9.9-1.9,1.9.9,1.9,1.9,1.9Z"/>
        <path class="st1" d="M127.8,253.4c1.1,0,1.9-.9,1.9-1.9s-.9-1.9-1.9-1.9-1.9.9-1.9,1.9.9,1.9,1.9,1.9Z"/>
        <path class="st1" d="M134.3,253.4c1.1,0,1.9-.9,1.9-1.9s-.9-1.9-1.9-1.9-1.9.9-1.9,1.9.9,1.9,1.9,1.9Z"/>
        <path class="st1" d="M140.9,253.4c1.1,0,1.9-.9,1.9-1.9s-.9-1.9-1.9-1.9-1.9.9-1.9,1.9.9,1.9,1.9,1.9Z"/>
        <path class="st1" d="M147.4,253.4c1.1,0,1.9-.9,1.9-1.9s-.9-1.9-1.9-1.9-1.9.9-1.9,1.9.9,1.9,1.9,1.9Z"/>
        <path class="st1" d="M153.9,253.4c1.1,0,1.9-.9,1.9-1.9s-.9-1.9-1.9-1.9-1.9.9-1.9,1.9.9,1.9,1.9,1.9Z"/>
        <path class="st1" d="M160.5,253.4c1.1,0,1.9-.9,1.9-1.9s-.9-1.9-1.9-1.9-1.9.9-1.9,1.9.9,1.9,1.9,1.9Z"/>
        <path class="st1" d="M167,253.4c1.1,0,1.9-.9,1.9-1.9s-.9-1.9-1.9-1.9-1.9.9-1.9,1.9.9,1.9,1.9,1.9Z"/>
        <path class="st1" d="M173.5,253.4c1.1,0,1.9-.9,1.9-1.9s-.9-1.9-1.9-1.9-1.9.9-1.9,1.9.9,1.9,1.9,1.9Z"/>
        <path class="st1" d="M180.1,253.4c1.1,0,1.9-.9,1.9-1.9s-.9-1.9-1.9-1.9-1.9.9-1.9,1.9.9,1.9,1.9,1.9Z"/>
        <path class="st1" d="M186.6,253.4c1.1,0,1.9-.9,1.9-1.9s-.9-1.9-1.9-1.9-1.9.9-1.9,1.9.9,1.9,1.9,1.9Z"/>
        <path class="st1" d="M193.1,253.4c1.1,0,1.9-.9,1.9-1.9s-.9-1.9-1.9-1.9-1.9.9-1.9,1.9.9,1.9,1.9,1.9Z"/>
        <path class="st1" d="M118.1,247.5c1.1,0,1.9-.9,1.9-1.9s-.9-1.9-1.9-1.9-1.9.9-1.9,1.9.9,1.9,1.9,1.9Z"/>
        <path class="st1" d="M124.6,247.5c1.1,0,1.9-.9,1.9-1.9s-.9-1.9-1.9-1.9-1.9.9-1.9,1.9.9,1.9,1.9,1.9Z"/>
        <path class="st1" d="M131.2,247.5c1.1,0,1.9-.9,1.9-1.9s-.9-1.9-1.9-1.9-1.9.9-1.9,1.9.9,1.9,1.9,1.9Z"/>
        <path class="st1" d="M137.7,247.5c1.1,0,1.9-.9,1.9-1.9s-.9-1.9-1.9-1.9-1.9.9-1.9,1.9.9,1.9,1.9,1.9Z"/>
        <path class="st1" d="M144.2,247.5c1.1,0,1.9-.9,1.9-1.9s-.9-1.9-1.9-1.9-1.9.9-1.9,1.9.9,1.9,1.9,1.9Z"/>
        <path class="st1" d="M150.8,247.5c1.1,0,1.9-.9,1.9-1.9s-.9-1.9-1.9-1.9-1.9.9-1.9,1.9.9,1.9,1.9,1.9Z"/>
        <path class="st1" d="M157.3,247.5c1.1,0,1.9-.9,1.9-1.9s-.9-1.9-1.9-1.9-1.9.9-1.9,1.9.9,1.9,1.9,1.9Z"/>
        <path class="st1" d="M163.8,247.5c1.1,0,1.9-.9,1.9-1.9s-.9-1.9-1.9-1.9-1.9.9-1.9,1.9.9,1.9,1.9,1.9Z"/>
        <path class="st1" d="M170.4,247.5c1.1,0,1.9-.9,1.9-1.9s-.9-1.9-1.9-1.9-1.9.9-1.9,1.9.9,1.9,1.9,1.9Z"/>
        <path class="st1" d="M176.9,247.5c1.1,0,1.9-.9,1.9-1.9s-.9-1.9-1.9-1.9-1.9.9-1.9,1.9.9,1.9,1.9,1.9Z"/>
        <path class="st1" d="M183.4,247.5c1.1,0,1.9-.9,1.9-1.9s-.9-1.9-1.9-1.9-1.9.9-1.9,1.9.9,1.9,1.9,1.9Z"/>
        <path class="st1" d="M190,247.5c1.1,0,1.9-.9,1.9-1.9s-.9-1.9-1.9-1.9-1.9.9-1.9,1.9.9,1.9,1.9,1.9Z"/>
        <circle class="st0" cx="121.3" cy="240" r="1.9"/>
        <path class="st1" d="M127.8,241.9c1.1,0,1.9-.9,1.9-1.9s-.9-1.9-1.9-1.9-1.9.9-1.9,1.9.9,1.9,1.9,1.9Z"/>
        <path class="st1" d="M134.3,241.9c1.1,0,1.9-.9,1.9-1.9s-.9-1.9-1.9-1.9-1.9.9-1.9,1.9.9,1.9,1.9,1.9Z"/>
        <path class="st1" d="M140.9,241.9c1.1,0,1.9-.9,1.9-1.9s-.9-1.9-1.9-1.9-1.9.9-1.9,1.9.9,1.9,1.9,1.9Z"/>
        <path class="st1" d="M147.4,241.9c1.1,0,1.9-.9,1.9-1.9s-.9-1.9-1.9-1.9-1.9.9-1.9,1.9.9,1.9,1.9,1.9Z"/>
        <path class="st1" d="M153.9,241.9c1.1,0,1.9-.9,1.9-1.9s-.9-1.9-1.9-1.9-1.9.9-1.9,1.9.9,1.9,1.9,1.9Z"/>
        <circle class="st0" cx="160.5" cy="240" r="1.9"/>
        <path class="st1" d="M167,241.9c1.1,0,1.9-.9,1.9-1.9s-.9-1.9-1.9-1.9-1.9.9-1.9,1.9.9,1.9,1.9,1.9Z"/>
        <path class="st1" d="M173.5,241.9c1.1,0,1.9-.9,1.9-1.9s-.9-1.9-1.9-1.9-1.9.9-1.9,1.9.9,1.9,1.9,1.9Z"/>
        <path class="st1" d="M180.1,241.9c1.1,0,1.9-.9,1.9-1.9s-.9-1.9-1.9-1.9-1.9.9-1.9,1.9.9,1.9,1.9,1.9Z"/>
        <circle class="st0" cx="186.6" cy="240" r="1.9"/>
        <path class="st1" d="M193.1,241.9c1.1,0,1.9-.9,1.9-1.9s-.9-1.9-1.9-1.9-1.9.9-1.9,1.9.9,1.9,1.9,1.9Z"/>
      </g>
      <g>
        <path class="st1" d="M118.1,326.8c1.1,0,1.9-.9,1.9-1.9s-.9-1.9-1.9-1.9-1.9.9-1.9,1.9.9,1.9,1.9,1.9Z"/>
        <path class="st1" d="M124.6,326.8c1.1,0,1.9-.9,1.9-1.9s-.9-1.9-1.9-1.9-1.9.9-1.9,1.9.9,1.9,1.9,1.9Z"/>
        <path class="st1" d="M131.2,326.8c1.1,0,1.9-.9,1.9-1.9s-.9-1.9-1.9-1.9-1.9.9-1.9,1.9.9,1.9,1.9,1.9Z"/>
        <path class="st1" d="M137.7,326.8c1.1,0,1.9-.9,1.9-1.9s-.9-1.9-1.9-1.9-1.9.9-1.9,1.9.9,1.9,1.9,1.9Z"/>
        <path class="st1" d="M144.2,326.8c1.1,0,1.9-.9,1.9-1.9s-.9-1.9-1.9-1.9-1.9.9-1.9,1.9.9,1.9,1.9,1.9Z"/>
        <path class="st1" d="M150.8,326.8c1.1,0,1.9-.9,1.9-1.9s-.9-1.9-1.9-1.9-1.9.9-1.9,1.9.9,1.9,1.9,1.9Z"/>
        <path class="st1" d="M157.3,326.8c1.1,0,1.9-.9,1.9-1.9s-.9-1.9-1.9-1.9-1.9.9-1.9,1.9.9,1.9,1.9,1.9Z"/>
        <path class="st1" d="M163.8,326.8c1.1,0,1.9-.9,1.9-1.9s-.9-1.9-1.9-1.9-1.9.9-1.9,1.9.9,1.9,1.9,1.9Z"/>
        <path class="st1" d="M170.4,326.8c1.1,0,1.9-.9,1.9-1.9s-.9-1.9-1.9-1.9-1.9.9-1.9,1.9.9,1.9,1.9,1.9Z"/>
        <path class="st1" d="M176.9,326.8c1.1,0,1.9-.9,1.9-1.9s-.9-1.9-1.9-1.9-1.9.9-1.9,1.9.9,1.9,1.9,1.9Z"/>
        <path class="st1" d="M183.4,326.8c1.1,0,1.9-.9,1.9-1.9s-.9-1.9-1.9-1.9-1.9.9-1.9,1.9.9,1.9,1.9,1.9Z"/>
        <path class="st1" d="M190,326.8c1.1,0,1.9-.9,1.9-1.9s-.9-1.9-1.9-1.9-1.9.9-1.9,1.9.9,1.9,1.9,1.9Z"/>
        <path class="st1" d="M121.3,321.2c1.1,0,1.9-.9,1.9-1.9s-.9-1.9-1.9-1.9-1.9.9-1.9,1.9.9,1.9,1.9,1.9Z"/>
        <path class="st1" d="M127.8,321.2c1.1,0,1.9-.9,1.9-1.9s-.9-1.9-1.9-1.9-1.9.9-1.9,1.9.9,1.9,1.9,1.9Z"/>
        <path class="st1" d="M134.3,321.2c1.1,0,1.9-.9,1.9-1.9s-.9-1.9-1.9-1.9-1.9.9-1.9,1.9.9,1.9,1.9,1.9Z"/>
        <path class="st1" d="M140.9,321.2c1.1,0,1.9-.9,1.9-1.9s-.9-1.9-1.9-1.9-1.9.9-1.9,1.9.9,1.9,1.9,1.9Z"/>
        <path class="st1" d="M147.4,321.2c1.1,0,1.9-.9,1.9-1.9s-.9-1.9-1.9-1.9-1.9.9-1.9,1.9.9,1.9,1.9,1.9Z"/>
        <path class="st1" d="M153.9,321.2c1.1,0,1.9-.9,1.9-1.9s-.9-1.9-1.9-1.9-1.9.9-1.9,1.9.9,1.9,1.9,1.9Z"/>
        <path class="st1" d="M160.5,321.2c1.1,0,1.9-.9,1.9-1.9s-.9-1.9-1.9-1.9-1.9.9-1.9,1.9.9,1.9,1.9,1.9Z"/>
        <path class="st1" d="M167,321.2c1.1,0,1.9-.9,1.9-1.9s-.9-1.9-1.9-1.9-1.9.9-1.9,1.9.9,1.9,1.9,1.9Z"/>
        <path class="st1" d="M173.5,321.2c1.1,0,1.9-.9,1.9-1.9s-.9-1.9-1.9-1.9-1.9.9-1.9,1.9.9,1.9,1.9,1.9Z"/>
        <path class="st1" d="M180.1,321.2c1.1,0,1.9-.9,1.9-1.9s-.9-1.9-1.9-1.9-1.9.9-1.9,1.9.9,1.9,1.9,1.9Z"/>
        <path class="st1" d="M186.6,321.2c1.1,0,1.9-.9,1.9-1.9s-.9-1.9-1.9-1.9-1.9.9-1.9,1.9.9,1.9,1.9,1.9Z"/>
        <path class="st1" d="M193.1,321.2c1.1,0,1.9-.9,1.9-1.9s-.9-1.9-1.9-1.9-1.9.9-1.9,1.9.9,1.9,1.9,1.9Z"/>
        <path class="st1" d="M118.1,315.3c1.1,0,1.9-.9,1.9-1.9s-.9-1.9-1.9-1.9-1.9.9-1.9,1.9.9,1.9,1.9,1.9Z"/>
        <path class="st1" d="M124.6,315.3c1.1,0,1.9-.9,1.9-1.9s-.9-1.9-1.9-1.9-1.9.9-1.9,1.9.9,1.9,1.9,1.9Z"/>
        <path class="st1" d="M131.2,315.3c1.1,0,1.9-.9,1.9-1.9s-.9-1.9-1.9-1.9-1.9.9-1.9,1.9.9,1.9,1.9,1.9Z"/>
        <path class="st1" d="M137.7,315.3c1.1,0,1.9-.9,1.9-1.9s-.9-1.9-1.9-1.9-1.9.9-1.9,1.9.9,1.9,1.9,1.9Z"/>
        <path class="st1" d="M144.2,315.3c1.1,0,1.9-.9,1.9-1.9s-.9-1.9-1.9-1.9-1.9.9-1.9,1.9.9,1.9,1.9,1.9Z"/>
        <path class="st1" d="M150.8,315.3c1.1,0,1.9-.9,1.9-1.9s-.9-1.9-1.9-1.9-1.9.9-1.9,1.9.9,1.9,1.9,1.9Z"/>
        <path class="st1" d="M157.3,315.3c1.1,0,1.9-.9,1.9-1.9s-.9-1.9-1.9-1.9-1.9.9-1.9,1.9.9,1.9,1.9,1.9Z"/>
        <path class="st1" d="M163.8,315.3c1.1,0,1.9-.9,1.9-1.9s-.9-1.9-1.9-1.9-1.9.9-1.9,1.9.9,1.9,1.9,1.9Z"/>
        <path class="st1" d="M170.4,315.3c1.1,0,1.9-.9,1.9-1.9s-.9-1.9-1.9-1.9-1.9.9-1.9,1.9.9,1.9,1.9,1.9Z"/>
        <path class="st1" d="M176.9,315.3c1.1,0,1.9-.9,1.9-1.9s-.9-1.9-1.9-1.9-1.9.9-1.9,1.9.9,1.9,1.9,1.9Z"/>
        <path class="st1" d="M183.4,315.3c1.1,0,1.9-.9,1.9-1.9s-.9-1.9-1.9-1.9-1.9.9-1.9,1.9.9,1.9,1.9,1.9Z"/>
        <path class="st1" d="M190,315.3c1.1,0,1.9-.9,1.9-1.9s-.9-1.9-1.9-1.9-1.9.9-1.9,1.9.9,1.9,1.9,1.9Z"/>
        <circle class="st0" cx="121.3" cy="307.8" r="1.9"/>
        <path class="st1" d="M127.8,309.7c1.1,0,1.9-.9,1.9-1.9s-.9-1.9-1.9-1.9-1.9.9-1.9,1.9.9,1.9,1.9,1.9Z"/>
        <path class="st1" d="M134.3,309.7c1.1,0,1.9-.9,1.9-1.9s-.9-1.9-1.9-1.9-1.9.9-1.9,1.9.9,1.9,1.9,1.9Z"/>
        <path class="st1" d="M140.9,309.7c1.1,0,1.9-.9,1.9-1.9s-.9-1.9-1.9-1.9-1.9.9-1.9,1.9.9,1.9,1.9,1.9Z"/>
        <path class="st1" d="M147.4,309.7c1.1,0,1.9-.9,1.9-1.9s-.9-1.9-1.9-1.9-1.9.9-1.9,1.9.9,1.9,1.9,1.9Z"/>
        <path class="st1" d="M153.9,309.7c1.1,0,1.9-.9,1.9-1.9s-.9-1.9-1.9-1.9-1.9.9-1.9,1.9.9,1.9,1.9,1.9Z"/>
        <circle class="st0" cx="160.5" cy="307.8" r="1.9"/>
        <path class="st1" d="M167,309.7c1.1,0,1.9-.9,1.9-1.9s-.9-1.9-1.9-1.9-1.9.9-1.9,1.9.9,1.9,1.9,1.9Z"/>
        <path class="st1" d="M173.5,309.7c1.1,0,1.9-.9,1.9-1.9s-.9-1.9-1.9-1.9-1.9.9-1.9,1.9.9,1.9,1.9,1.9Z"/>
        <path class="st1" d="M180.1,309.7c1.1,0,1.9-.9,1.9-1.9s-.9-1.9-1.9-1.9-1.9.9-1.9,1.9.9,1.9,1.9,1.9Z"/>
        <circle class="st0" cx="186.6" cy="307.8" r="1.9"/>
        <path class="st1" d="M193.1,309.7c1.1,0,1.9-.9,1.9-1.9s-.9-1.9-1.9-1.9-1.9.9-1.9,1.9.9,1.9,1.9,1.9Z"/>
      </g>
      <g>
        <path class="st1" d="M118.1,304.3c1.1,0,1.9-.9,1.9-1.9s-.9-1.9-1.9-1.9-1.9.9-1.9,1.9.9,1.9,1.9,1.9Z"/>
        <path class="st1" d="M124.6,304.3c1.1,0,1.9-.9,1.9-1.9s-.9-1.9-1.9-1.9-1.9.9-1.9,1.9.9,1.9,1.9,1.9Z"/>
        <path class="st1" d="M131.2,304.3c1.1,0,1.9-.9,1.9-1.9s-.9-1.9-1.9-1.9-1.9.9-1.9,1.9.9,1.9,1.9,1.9Z"/>
        <path class="st1" d="M137.7,304.3c1.1,0,1.9-.9,1.9-1.9s-.9-1.9-1.9-1.9-1.9.9-1.9,1.9.9,1.9,1.9,1.9Z"/>
        <path class="st1" d="M144.2,304.3c1.1,0,1.9-.9,1.9-1.9s-.9-1.9-1.9-1.9-1.9.9-1.9,1.9.9,1.9,1.9,1.9Z"/>
        <path class="st1" d="M150.8,304.3c1.1,0,1.9-.9,1.9-1.9s-.9-1.9-1.9-1.9-1.9.9-1.9,1.9.9,1.9,1.9,1.9Z"/>
        <path class="st1" d="M157.3,304.3c1.1,0,1.9-.9,1.9-1.9s-.9-1.9-1.9-1.9-1.9.9-1.9,1.9.9,1.9,1.9,1.9Z"/>
        <path class="st1" d="M163.8,304.3c1.1,0,1.9-.9,1.9-1.9s-.9-1.9-1.9-1.9-1.9.9-1.9,1.9.9,1.9,1.9,1.9Z"/>
        <path class="st1" d="M170.4,304.3c1.1,0,1.9-.9,1.9-1.9s-.9-1.9-1.9-1.9-1.9.9-1.9,1.9.9,1.9,1.9,1.9Z"/>
        <path class="st1" d="M176.9,304.3c1.1,0,1.9-.9,1.9-1.9s-.9-1.9-1.9-1.9-1.9.9-1.9,1.9.9,1.9,1.9,1.9Z"/>
        <path class="st1" d="M183.4,304.3c1.1,0,1.9-.9,1.9-1.9s-.9-1.9-1.9-1.9-1.9.9-1.9,1.9.9,1.9,1.9,1.9Z"/>
        <path class="st1" d="M190,304.3c1.1,0,1.9-.9,1.9-1.9s-.9-1.9-1.9-1.9-1.9.9-1.9,1.9.9,1.9,1.9,1.9Z"/>
        <path class="st1" d="M121.3,298.6c1.1,0,1.9-.9,1.9-1.9s-.9-1.9-1.9-1.9-1.9.9-1.9,1.9.9,1.9,1.9,1.9Z"/>
        <path class="st1" d="M127.8,298.6c1.1,0,1.9-.9,1.9-1.9s-.9-1.9-1.9-1.9-1.9.9-1.9,1.9.9,1.9,1.9,1.9Z"/>
        <path class="st1" d="M134.3,298.6c1.1,0,1.9-.9,1.9-1.9s-.9-1.9-1.9-1.9-1.9.9-1.9,1.9.9,1.9,1.9,1.9Z"/>
        <path class="st1" d="M140.9,298.6c1.1,0,1.9-.9,1.9-1.9s-.9-1.9-1.9-1.9-1.9.9-1.9,1.9.9,1.9,1.9,1.9Z"/>
        <path class="st1" d="M147.4,298.6c1.1,0,1.9-.9,1.9-1.9s-.9-1.9-1.9-1.9-1.9.9-1.9,1.9.9,1.9,1.9,1.9Z"/>
        <path class="st1" d="M153.9,298.6c1.1,0,1.9-.9,1.9-1.9s-.9-1.9-1.9-1.9-1.9.9-1.9,1.9.9,1.9,1.9,1.9Z"/>
        <path class="st1" d="M160.5,298.6c1.1,0,1.9-.9,1.9-1.9s-.9-1.9-1.9-1.9-1.9.9-1.9,1.9.9,1.9,1.9,1.9Z"/>
        <path class="st1" d="M167,298.6c1.1,0,1.9-.9,1.9-1.9s-.9-1.9-1.9-1.9-1.9.9-1.9,1.9.9,1.9,1.9,1.9Z"/>
        <path class="st1" d="M173.5,298.6c1.1,0,1.9-.9,1.9-1.9s-.9-1.9-1.9-1.9-1.9.9-1.9,1.9.9,1.9,1.9,1.9Z"/>
        <path class="st1" d="M180.1,298.6c1.1,0,1.9-.9,1.9-1.9s-.9-1.9-1.9-1.9-1.9.9-1.9,1.9.9,1.9,1.9,1.9Z"/>
        <path class="st1" d="M186.6,298.6c1.1,0,1.9-.9,1.9-1.9s-.9-1.9-1.9-1.9-1.9.9-1.9,1.9.9,1.9,1.9,1.9Z"/>
        <path class="st1" d="M193.1,298.6c1.1,0,1.9-.9,1.9-1.9s-.9-1.9-1.9-1.9-1.9.9-1.9,1.9.9,1.9,1.9,1.9Z"/>
        <path class="st1" d="M118.1,292.8c1.1,0,1.9-.9,1.9-1.9s-.9-1.9-1.9-1.9-1.9.9-1.9,1.9.9,1.9,1.9,1.9Z"/>
        <path class="st1" d="M124.6,292.8c1.1,0,1.9-.9,1.9-1.9s-.9-1.9-1.9-1.9-1.9.9-1.9,1.9.9,1.9,1.9,1.9Z"/>
        <path class="st1" d="M131.2,292.8c1.1,0,1.9-.9,1.9-1.9s-.9-1.9-1.9-1.9-1.9.9-1.9,1.9.9,1.9,1.9,1.9Z"/>
        <path class="st1" d="M137.7,292.8c1.1,0,1.9-.9,1.9-1.9s-.9-1.9-1.9-1.9-1.9.9-1.9,1.9.9,1.9,1.9,1.9Z"/>
        <path class="st1" d="M144.2,292.8c1.1,0,1.9-.9,1.9-1.9s-.9-1.9-1.9-1.9-1.9.9-1.9,1.9.9,1.9,1.9,1.9Z"/>
        <path class="st1" d="M150.8,292.8c1.1,0,1.9-.9,1.9-1.9s-.9-1.9-1.9-1.9-1.9.9-1.9,1.9.9,1.9,1.9,1.9Z"/>
        <path class="st1" d="M157.3,292.8c1.1,0,1.9-.9,1.9-1.9s-.9-1.9-1.9-1.9-1.9.9-1.9,1.9.9,1.9,1.9,1.9Z"/>
        <path class="st1" d="M163.8,292.8c1.1,0,1.9-.9,1.9-1.9s-.9-1.9-1.9-1.9-1.9.9-1.9,1.9.9,1.9,1.9,1.9Z"/>
        <path class="st1" d="M170.4,292.8c1.1,0,1.9-.9,1.9-1.9s-.9-1.9-1.9-1.9-1.9.9-1.9,1.9.9,1.9,1.9,1.9Z"/>
        <path class="st1" d="M176.9,292.8c1.1,0,1.9-.9,1.9-1.9s-.9-1.9-1.9-1.9-1.9.9-1.9,1.9.9,1.9,1.9,1.9Z"/>
        <path class="st1" d="M183.4,292.8c1.1,0,1.9-.9,1.9-1.9s-.9-1.9-1.9-1.9-1.9.9-1.9,1.9.9,1.9,1.9,1.9Z"/>
        <path class="st1" d="M190,292.8c1.1,0,1.9-.9,1.9-1.9s-.9-1.9-1.9-1.9-1.9.9-1.9,1.9.9,1.9,1.9,1.9Z"/>
        <path class="st1" d="M121.3,287.2c1.1,0,1.9-.9,1.9-1.9s-.9-1.9-1.9-1.9-1.9.9-1.9,1.9.9,1.9,1.9,1.9Z"/>
        <path class="st1" d="M127.8,287.2c1.1,0,1.9-.9,1.9-1.9s-.9-1.9-1.9-1.9-1.9.9-1.9,1.9.9,1.9,1.9,1.9Z"/>
        <path class="st1" d="M134.3,287.2c1.1,0,1.9-.9,1.9-1.9s-.9-1.9-1.9-1.9-1.9.9-1.9,1.9.9,1.9,1.9,1.9Z"/>
        <path class="st1" d="M140.9,287.2c1.1,0,1.9-.9,1.9-1.9s-.9-1.9-1.9-1.9-1.9.9-1.9,1.9.9,1.9,1.9,1.9Z"/>
        <path class="st1" d="M147.4,287.2c1.1,0,1.9-.9,1.9-1.9s-.9-1.9-1.9-1.9-1.9.9-1.9,1.9.9,1.9,1.9,1.9Z"/>
        <path class="st1" d="M153.9,287.2c1.1,0,1.9-.9,1.9-1.9s-.9-1.9-1.9-1.9-1.9.9-1.9,1.9.9,1.9,1.9,1.9Z"/>
        <path class="st1" d="M160.5,287.2c1.1,0,1.9-.9,1.9-1.9s-.9-1.9-1.9-1.9-1.9.9-1.9,1.9.9,1.9,1.9,1.9Z"/>
        <path class="st1" d="M167,287.2c1.1,0,1.9-.9,1.9-1.9s-.9-1.9-1.9-1.9-1.9.9-1.9,1.9.9,1.9,1.9,1.9Z"/>
        <path class="st1" d="M173.5,287.2c1.1,0,1.9-.9,1.9-1.9s-.9-1.9-1.9-1.9-1.9.9-1.9,1.9.9,1.9,1.9,1.9Z"/>
        <path class="st1" d="M180.1,287.2c1.1,0,1.9-.9,1.9-1.9s-.9-1.9-1.9-1.9-1.9.9-1.9,1.9.9,1.9,1.9,1.9Z"/>
        <path class="st1" d="M186.6,287.2c1.1,0,1.9-.9,1.9-1.9s-.9-1.9-1.9-1.9-1.9.9-1.9,1.9.9,1.9,1.9,1.9Z"/>
        <path class="st1" d="M193.1,287.2c1.1,0,1.9-.9,1.9-1.9s-.9-1.9-1.9-1.9-1.9.9-1.9,1.9.9,1.9,1.9,1.9Z"/>
      </g>
      <g>
        <path class="st1" d="M195.8,281.6c1.1,0,1.9-.9,1.9-1.9s-.9-1.9-1.9-1.9-1.9.9-1.9,1.9.9,1.9,1.9,1.9Z"/>
        <path class="st1" d="M202.3,281.6c1.1,0,1.9-.9,1.9-1.9s-.9-1.9-1.9-1.9-1.9.9-1.9,1.9.9,1.9,1.9,1.9Z"/>
        <path class="st1" d="M208.9,281.6c1.1,0,1.9-.9,1.9-1.9s-.9-1.9-1.9-1.9-1.9.9-1.9,1.9.9,1.9,1.9,1.9Z"/>
        <path class="st1" d="M215.4,281.6c1.1,0,1.9-.9,1.9-1.9s-.9-1.9-1.9-1.9-1.9.9-1.9,1.9.9,1.9,1.9,1.9Z"/>
        <path class="st1" d="M221.9,281.6c1.1,0,1.9-.9,1.9-1.9s-.9-1.9-1.9-1.9-1.9.9-1.9,1.9.9,1.9,1.9,1.9Z"/>
        <path class="st1" d="M228.5,281.6c1.1,0,1.9-.9,1.9-1.9s-.9-1.9-1.9-1.9-1.9.9-1.9,1.9.9,1.9,1.9,1.9Z"/>
        <path class="st1" d="M235,281.6c1.1,0,1.9-.9,1.9-1.9s-.9-1.9-1.9-1.9-1.9.9-1.9,1.9.9,1.9,1.9,1.9Z"/>
        <path class="st1" d="M241.5,281.6c1.1,0,1.9-.9,1.9-1.9s-.9-1.9-1.9-1.9-1.9.9-1.9,1.9.9,1.9,1.9,1.9Z"/>
        <path class="st1" d="M248.1,281.6c1.1,0,1.9-.9,1.9-1.9s-.9-1.9-1.9-1.9-1.9.9-1.9,1.9.9,1.9,1.9,1.9Z"/>
        <path class="st1" d="M254.6,281.6c1.1,0,1.9-.9,1.9-1.9s-.9-1.9-1.9-1.9-1.9.9-1.9,1.9.9,1.9,1.9,1.9Z"/>
        <path class="st1" d="M261.1,281.6c1.1,0,1.9-.9,1.9-1.9s-.9-1.9-1.9-1.9-1.9.9-1.9,1.9.9,1.9,1.9,1.9Z"/>
        <path class="st1" d="M267.7,281.6c1.1,0,1.9-.9,1.9-1.9s-.9-1.9-1.9-1.9-1.9.9-1.9,1.9.9,1.9,1.9,1.9Z"/>
        <path class="st1" d="M199,275.9c1.1,0,1.9-.9,1.9-1.9s-.9-1.9-1.9-1.9-1.9.9-1.9,1.9.9,1.9,1.9,1.9Z"/>
        <circle class="st0" cx="205.5" cy="274" r="1.9" transform="translate(-89.2 99.5) rotate(-22.5)"/>
        <path class="st1" d="M212,275.9c1.1,0,1.9-.9,1.9-1.9s-.9-1.9-1.9-1.9-1.9.9-1.9,1.9.9,1.9,1.9,1.9Z"/>
        <path class="st1" d="M218.6,275.9c1.1,0,1.9-.9,1.9-1.9s-.9-1.9-1.9-1.9-1.9.9-1.9,1.9.9,1.9,1.9,1.9Z"/>
        <path class="st1" d="M225.1,275.9c1.1,0,1.9-.9,1.9-1.9s-.9-1.9-1.9-1.9-1.9.9-1.9,1.9.9,1.9,1.9,1.9Z"/>
        <path class="st1" d="M231.6,275.9c1.1,0,1.9-.9,1.9-1.9s-.9-1.9-1.9-1.9-1.9.9-1.9,1.9.9,1.9,1.9,1.9Z"/>
        <path class="st1" d="M238.2,275.9c1.1,0,1.9-.9,1.9-1.9s-.9-1.9-1.9-1.9-1.9.9-1.9,1.9.9,1.9,1.9,1.9Z"/>
        <path class="st1" d="M244.7,275.9c1.1,0,1.9-.9,1.9-1.9s-.9-1.9-1.9-1.9-1.9.9-1.9,1.9.9,1.9,1.9,1.9Z"/>
        <path class="st1" d="M251.2,275.9c1.1,0,1.9-.9,1.9-1.9s-.9-1.9-1.9-1.9-1.9.9-1.9,1.9.9,1.9,1.9,1.9Z"/>
        <path class="st1" d="M257.8,275.9c1.1,0,1.9-.9,1.9-1.9s-.9-1.9-1.9-1.9-1.9.9-1.9,1.9.9,1.9,1.9,1.9Z"/>
        <path class="st1" d="M264.3,275.9c1.1,0,1.9-.9,1.9-1.9s-.9-1.9-1.9-1.9-1.9.9-1.9,1.9.9,1.9,1.9,1.9Z"/>
        <path class="st1" d="M270.8,275.9c1.1,0,1.9-.9,1.9-1.9s-.9-1.9-1.9-1.9-1.9.9-1.9,1.9.9,1.9,1.9,1.9Z"/>
        <path class="st1" d="M195.8,270.1c1.1,0,1.9-.9,1.9-1.9s-.9-1.9-1.9-1.9-1.9.9-1.9,1.9.9,1.9,1.9,1.9Z"/>
        <path class="st1" d="M202.3,270.1c1.1,0,1.9-.9,1.9-1.9s-.9-1.9-1.9-1.9-1.9.9-1.9,1.9.9,1.9,1.9,1.9Z"/>
        <path class="st1" d="M208.9,270.1c1.1,0,1.9-.9,1.9-1.9s-.9-1.9-1.9-1.9-1.9.9-1.9,1.9.9,1.9,1.9,1.9Z"/>
        <path class="st1" d="M215.4,270.1c1.1,0,1.9-.9,1.9-1.9s-.9-1.9-1.9-1.9-1.9.9-1.9,1.9.9,1.9,1.9,1.9Z"/>
        <path class="st1" d="M221.9,270.1c1.1,0,1.9-.9,1.9-1.9s-.9-1.9-1.9-1.9-1.9.9-1.9,1.9.9,1.9,1.9,1.9Z"/>
        <path class="st1" d="M228.5,270.1c1.1,0,1.9-.9,1.9-1.9s-.9-1.9-1.9-1.9-1.9.9-1.9,1.9.9,1.9,1.9,1.9Z"/>
        <path class="st1" d="M235,270.1c1.1,0,1.9-.9,1.9-1.9s-.9-1.9-1.9-1.9-1.9.9-1.9,1.9.9,1.9,1.9,1.9Z"/>
        <path class="st1" d="M241.5,270.1c1.1,0,1.9-.9,1.9-1.9s-.9-1.9-1.9-1.9-1.9.9-1.9,1.9.9,1.9,1.9,1.9Z"/>
        <path class="st1" d="M248.1,270.1c1.1,0,1.9-.9,1.9-1.9s-.9-1.9-1.9-1.9-1.9.9-1.9,1.9.9,1.9,1.9,1.9Z"/>
        <path class="st1" d="M254.6,270.1c1.1,0,1.9-.9,1.9-1.9s-.9-1.9-1.9-1.9-1.9.9-1.9,1.9.9,1.9,1.9,1.9Z"/>
        <path class="st1" d="M261.1,270.1c1.1,0,1.9-.9,1.9-1.9s-.9-1.9-1.9-1.9-1.9.9-1.9,1.9.9,1.9,1.9,1.9Z"/>
        <path class="st1" d="M267.7,270.1c1.1,0,1.9-.9,1.9-1.9s-.9-1.9-1.9-1.9-1.9.9-1.9,1.9.9,1.9,1.9,1.9Z"/>
        <path class="st1" d="M199,264.5c1.1,0,1.9-.9,1.9-1.9s-.9-1.9-1.9-1.9-1.9.9-1.9,1.9.9,1.9,1.9,1.9Z"/>
        <path class="st1" d="M205.5,264.5c1.1,0,1.9-.9,1.9-1.9s-.9-1.9-1.9-1.9-1.9.9-1.9,1.9.9,1.9,1.9,1.9Z"/>
        <path class="st1" d="M212,264.5c1.1,0,1.9-.9,1.9-1.9s-.9-1.9-1.9-1.9-1.9.9-1.9,1.9.9,1.9,1.9,1.9Z"/>
        <path class="st1" d="M218.6,264.5c1.1,0,1.9-.9,1.9-1.9s-.9-1.9-1.9-1.9-1.9.9-1.9,1.9.9,1.9,1.9,1.9Z"/>
        <path class="st1" d="M225.1,264.5c1.1,0,1.9-.9,1.9-1.9s-.9-1.9-1.9-1.9-1.9.9-1.9,1.9.9,1.9,1.9,1.9Z"/>
        <path class="st1" d="M231.6,264.5c1.1,0,1.9-.9,1.9-1.9s-.9-1.9-1.9-1.9-1.9.9-1.9,1.9.9,1.9,1.9,1.9Z"/>
        <path class="st1" d="M238.2,264.5c1.1,0,1.9-.9,1.9-1.9s-.9-1.9-1.9-1.9-1.9.9-1.9,1.9.9,1.9,1.9,1.9Z"/>
        <path class="st1" d="M244.7,264.5c1.1,0,1.9-.9,1.9-1.9s-.9-1.9-1.9-1.9-1.9.9-1.9,1.9.9,1.9,1.9,1.9Z"/>
        <path class="st1" d="M251.2,264.5c1.1,0,1.9-.9,1.9-1.9s-.9-1.9-1.9-1.9-1.9.9-1.9,1.9.9,1.9,1.9,1.9Z"/>
        <path class="st1" d="M257.8,264.5c1.1,0,1.9-.9,1.9-1.9s-.9-1.9-1.9-1.9-1.9.9-1.9,1.9.9,1.9,1.9,1.9Z"/>
        <path class="st1" d="M264.3,264.5c1.1,0,1.9-.9,1.9-1.9s-.9-1.9-1.9-1.9-1.9.9-1.9,1.9.9,1.9,1.9,1.9Z"/>
        <path class="st1" d="M270.8,264.5c1.1,0,1.9-.9,1.9-1.9s-.9-1.9-1.9-1.9-1.9.9-1.9,1.9.9,1.9,1.9,1.9Z"/>
      </g>
      <g>
        <path class="st1" d="M195.8,259c1.1,0,1.9-.9,1.9-1.9s-.9-1.9-1.9-1.9-1.9.9-1.9,1.9.9,1.9,1.9,1.9Z"/>
        <path class="st1" d="M202.3,259c1.1,0,1.9-.9,1.9-1.9s-.9-1.9-1.9-1.9-1.9.9-1.9,1.9.9,1.9,1.9,1.9Z"/>
        <path class="st1" d="M208.9,259c1.1,0,1.9-.9,1.9-1.9s-.9-1.9-1.9-1.9-1.9.9-1.9,1.9.9,1.9,1.9,1.9Z"/>
        <path class="st1" d="M215.4,259c1.1,0,1.9-.9,1.9-1.9s-.9-1.9-1.9-1.9-1.9.9-1.9,1.9.9,1.9,1.9,1.9Z"/>
        <path class="st1" d="M221.9,259c1.1,0,1.9-.9,1.9-1.9s-.9-1.9-1.9-1.9-1.9.9-1.9,1.9.9,1.9,1.9,1.9Z"/>
        <path class="st1" d="M228.5,259c1.1,0,1.9-.9,1.9-1.9s-.9-1.9-1.9-1.9-1.9.9-1.9,1.9.9,1.9,1.9,1.9Z"/>
        <path class="st1" d="M235,259c1.1,0,1.9-.9,1.9-1.9s-.9-1.9-1.9-1.9-1.9.9-1.9,1.9.9,1.9,1.9,1.9Z"/>
        <path class="st1" d="M241.5,259c1.1,0,1.9-.9,1.9-1.9s-.9-1.9-1.9-1.9-1.9.9-1.9,1.9.9,1.9,1.9,1.9Z"/>
        <path class="st1" d="M248.1,259c1.1,0,1.9-.9,1.9-1.9s-.9-1.9-1.9-1.9-1.9.9-1.9,1.9.9,1.9,1.9,1.9Z"/>
        <path class="st1" d="M254.6,259c1.1,0,1.9-.9,1.9-1.9s-.9-1.9-1.9-1.9-1.9.9-1.9,1.9.9,1.9,1.9,1.9Z"/>
        <path class="st1" d="M261.1,259c1.1,0,1.9-.9,1.9-1.9s-.9-1.9-1.9-1.9-1.9.9-1.9,1.9.9,1.9,1.9,1.9Z"/>
        <path class="st1" d="M267.7,259c1.1,0,1.9-.9,1.9-1.9s-.9-1.9-1.9-1.9-1.9.9-1.9,1.9.9,1.9,1.9,1.9Z"/>
        <path class="st1" d="M199,253.4c1.1,0,1.9-.9,1.9-1.9s-.9-1.9-1.9-1.9-1.9.9-1.9,1.9.9,1.9,1.9,1.9Z"/>
        <path class="st1" d="M205.5,253.4c1.1,0,1.9-.9,1.9-1.9s-.9-1.9-1.9-1.9-1.9.9-1.9,1.9.9,1.9,1.9,1.9Z"/>
        <path class="st1" d="M212,253.4c1.1,0,1.9-.9,1.9-1.9s-.9-1.9-1.9-1.9-1.9.9-1.9,1.9.9,1.9,1.9,1.9Z"/>
        <path class="st1" d="M218.6,253.4c1.1,0,1.9-.9,1.9-1.9s-.9-1.9-1.9-1.9-1.9.9-1.9,1.9.9,1.9,1.9,1.9Z"/>
        <path class="st1" d="M225.1,253.4c1.1,0,1.9-.9,1.9-1.9s-.9-1.9-1.9-1.9-1.9.9-1.9,1.9.9,1.9,1.9,1.9Z"/>
        <path class="st1" d="M231.6,253.4c1.1,0,1.9-.9,1.9-1.9s-.9-1.9-1.9-1.9-1.9.9-1.9,1.9.9,1.9,1.9,1.9Z"/>
        <path class="st1" d="M238.2,253.4c1.1,0,1.9-.9,1.9-1.9s-.9-1.9-1.9-1.9-1.9.9-1.9,1.9.9,1.9,1.9,1.9Z"/>
        <path class="st1" d="M244.7,253.4c1.1,0,1.9-.9,1.9-1.9s-.9-1.9-1.9-1.9-1.9.9-1.9,1.9.9,1.9,1.9,1.9Z"/>
        <path class="st1" d="M251.2,253.4c1.1,0,1.9-.9,1.9-1.9s-.9-1.9-1.9-1.9-1.9.9-1.9,1.9.9,1.9,1.9,1.9Z"/>
        <path class="st1" d="M257.8,253.4c1.1,0,1.9-.9,1.9-1.9s-.9-1.9-1.9-1.9-1.9.9-1.9,1.9.9,1.9,1.9,1.9Z"/>
        <path class="st1" d="M264.3,253.4c1.1,0,1.9-.9,1.9-1.9s-.9-1.9-1.9-1.9-1.9.9-1.9,1.9.9,1.9,1.9,1.9Z"/>
        <path class="st1" d="M270.8,253.4c1.1,0,1.9-.9,1.9-1.9s-.9-1.9-1.9-1.9-1.9.9-1.9,1.9.9,1.9,1.9,1.9Z"/>
        <path class="st1" d="M195.8,247.5c1.1,0,1.9-.9,1.9-1.9s-.9-1.9-1.9-1.9-1.9.9-1.9,1.9.9,1.9,1.9,1.9Z"/>
        <path class="st1" d="M202.3,247.5c1.1,0,1.9-.9,1.9-1.9s-.9-1.9-1.9-1.9-1.9.9-1.9,1.9.9,1.9,1.9,1.9Z"/>
        <path class="st1" d="M208.9,247.5c1.1,0,1.9-.9,1.9-1.9s-.9-1.9-1.9-1.9-1.9.9-1.9,1.9.9,1.9,1.9,1.9Z"/>
        <path class="st1" d="M215.4,247.5c1.1,0,1.9-.9,1.9-1.9s-.9-1.9-1.9-1.9-1.9.9-1.9,1.9.9,1.9,1.9,1.9Z"/>
        <path class="st1" d="M221.9,247.5c1.1,0,1.9-.9,1.9-1.9s-.9-1.9-1.9-1.9-1.9.9-1.9,1.9.9,1.9,1.9,1.9Z"/>
        <path class="st1" d="M228.5,247.5c1.1,0,1.9-.9,1.9-1.9s-.9-1.9-1.9-1.9-1.9.9-1.9,1.9.9,1.9,1.9,1.9Z"/>
        <path class="st1" d="M235,247.5c1.1,0,1.9-.9,1.9-1.9s-.9-1.9-1.9-1.9-1.9.9-1.9,1.9.9,1.9,1.9,1.9Z"/>
        <path class="st1" d="M241.5,247.5c1.1,0,1.9-.9,1.9-1.9s-.9-1.9-1.9-1.9-1.9.9-1.9,1.9.9,1.9,1.9,1.9Z"/>
        <path class="st1" d="M248.1,247.5c1.1,0,1.9-.9,1.9-1.9s-.9-1.9-1.9-1.9-1.9.9-1.9,1.9.9,1.9,1.9,1.9Z"/>
        <path class="st1" d="M254.6,247.5c1.1,0,1.9-.9,1.9-1.9s-.9-1.9-1.9-1.9-1.9.9-1.9,1.9.9,1.9,1.9,1.9Z"/>
        <path class="st1" d="M261.1,247.5c1.1,0,1.9-.9,1.9-1.9s-.9-1.9-1.9-1.9-1.9.9-1.9,1.9.9,1.9,1.9,1.9Z"/>
        <path class="st1" d="M267.7,247.5c1.1,0,1.9-.9,1.9-1.9s-.9-1.9-1.9-1.9-1.9.9-1.9,1.9.9,1.9,1.9,1.9Z"/>
        <path class="st1" d="M199,241.9c1.1,0,1.9-.9,1.9-1.9s-.9-1.9-1.9-1.9-1.9.9-1.9,1.9.9,1.9,1.9,1.9Z"/>
        <circle class="st0" cx="205.5" cy="240" r="1.9" transform="translate(-76.2 96.9) rotate(-22.5)"/>
        <path class="st1" d="M212,241.9c1.1,0,1.9-.9,1.9-1.9s-.9-1.9-1.9-1.9-1.9.9-1.9,1.9.9,1.9,1.9,1.9Z"/>
        <path class="st1" d="M218.6,241.9c1.1,0,1.9-.9,1.9-1.9s-.9-1.9-1.9-1.9-1.9.9-1.9,1.9.9,1.9,1.9,1.9Z"/>
        <path class="st1" d="M225.1,241.9c1.1,0,1.9-.9,1.9-1.9s-.9-1.9-1.9-1.9-1.9.9-1.9,1.9.9,1.9,1.9,1.9Z"/>
        <path class="st1" d="M231.6,241.9c1.1,0,1.9-.9,1.9-1.9s-.9-1.9-1.9-1.9-1.9.9-1.9,1.9.9,1.9,1.9,1.9Z"/>
        <path class="st1" d="M238.2,241.9c1.1,0,1.9-.9,1.9-1.9s-.9-1.9-1.9-1.9-1.9.9-1.9,1.9.9,1.9,1.9,1.9Z"/>
        <path class="st1" d="M244.7,241.9c1.1,0,1.9-.9,1.9-1.9s-.9-1.9-1.9-1.9-1.9.9-1.9,1.9.9,1.9,1.9,1.9Z"/>
        <path class="st1" d="M251.2,241.9c1.1,0,1.9-.9,1.9-1.9s-.9-1.9-1.9-1.9-1.9.9-1.9,1.9.9,1.9,1.9,1.9Z"/>
        <path class="st1" d="M257.8,241.9c1.1,0,1.9-.9,1.9-1.9s-.9-1.9-1.9-1.9-1.9.9-1.9,1.9.9,1.9,1.9,1.9Z"/>
        <path class="st1" d="M264.3,241.9c1.1,0,1.9-.9,1.9-1.9s-.9-1.9-1.9-1.9-1.9.9-1.9,1.9.9,1.9,1.9,1.9Z"/>
        <path class="st1" d="M270.8,241.9c1.1,0,1.9-.9,1.9-1.9s-.9-1.9-1.9-1.9-1.9.9-1.9,1.9.9,1.9,1.9,1.9Z"/>
      </g>
      <g>
        <path class="st1" d="M195.8,326.8c1.1,0,1.9-.9,1.9-1.9s-.9-1.9-1.9-1.9-1.9.9-1.9,1.9.9,1.9,1.9,1.9Z"/>
        <path class="st1" d="M202.3,326.8c1.1,0,1.9-.9,1.9-1.9s-.9-1.9-1.9-1.9-1.9.9-1.9,1.9.9,1.9,1.9,1.9Z"/>
        <path class="st1" d="M208.9,326.8c1.1,0,1.9-.9,1.9-1.9s-.9-1.9-1.9-1.9-1.9.9-1.9,1.9.9,1.9,1.9,1.9Z"/>
        <path class="st1" d="M215.4,326.8c1.1,0,1.9-.9,1.9-1.9s-.9-1.9-1.9-1.9-1.9.9-1.9,1.9.9,1.9,1.9,1.9Z"/>
        <path class="st1" d="M221.9,326.8c1.1,0,1.9-.9,1.9-1.9s-.9-1.9-1.9-1.9-1.9.9-1.9,1.9.9,1.9,1.9,1.9Z"/>
        <path class="st1" d="M228.5,326.8c1.1,0,1.9-.9,1.9-1.9s-.9-1.9-1.9-1.9-1.9.9-1.9,1.9.9,1.9,1.9,1.9Z"/>
        <path class="st1" d="M235,326.8c1.1,0,1.9-.9,1.9-1.9s-.9-1.9-1.9-1.9-1.9.9-1.9,1.9.9,1.9,1.9,1.9Z"/>
        <path class="st1" d="M241.5,326.8c1.1,0,1.9-.9,1.9-1.9s-.9-1.9-1.9-1.9-1.9.9-1.9,1.9.9,1.9,1.9,1.9Z"/>
        <path class="st1" d="M248.1,326.8c1.1,0,1.9-.9,1.9-1.9s-.9-1.9-1.9-1.9-1.9.9-1.9,1.9.9,1.9,1.9,1.9Z"/>
        <path class="st1" d="M254.6,326.8c1.1,0,1.9-.9,1.9-1.9s-.9-1.9-1.9-1.9-1.9.9-1.9,1.9.9,1.9,1.9,1.9Z"/>
        <path class="st1" d="M261.1,326.8c1.1,0,1.9-.9,1.9-1.9s-.9-1.9-1.9-1.9-1.9.9-1.9,1.9.9,1.9,1.9,1.9Z"/>
        <path class="st1" d="M267.7,326.8c1.1,0,1.9-.9,1.9-1.9s-.9-1.9-1.9-1.9-1.9.9-1.9,1.9.9,1.9,1.9,1.9Z"/>
        <path class="st1" d="M199,321.2c1.1,0,1.9-.9,1.9-1.9s-.9-1.9-1.9-1.9-1.9.9-1.9,1.9.9,1.9,1.9,1.9Z"/>
        <path class="st1" d="M205.5,321.2c1.1,0,1.9-.9,1.9-1.9s-.9-1.9-1.9-1.9-1.9.9-1.9,1.9.9,1.9,1.9,1.9Z"/>
        <path class="st1" d="M212,321.2c1.1,0,1.9-.9,1.9-1.9s-.9-1.9-1.9-1.9-1.9.9-1.9,1.9.9,1.9,1.9,1.9Z"/>
        <path class="st1" d="M218.6,321.2c1.1,0,1.9-.9,1.9-1.9s-.9-1.9-1.9-1.9-1.9.9-1.9,1.9.9,1.9,1.9,1.9Z"/>
        <path class="st1" d="M225.1,321.2c1.1,0,1.9-.9,1.9-1.9s-.9-1.9-1.9-1.9-1.9.9-1.9,1.9.9,1.9,1.9,1.9Z"/>
        <path class="st1" d="M231.6,321.2c1.1,0,1.9-.9,1.9-1.9s-.9-1.9-1.9-1.9-1.9.9-1.9,1.9.9,1.9,1.9,1.9Z"/>
        <path class="st1" d="M238.2,321.2c1.1,0,1.9-.9,1.9-1.9s-.9-1.9-1.9-1.9-1.9.9-1.9,1.9.9,1.9,1.9,1.9Z"/>
        <path class="st1" d="M244.7,321.2c1.1,0,1.9-.9,1.9-1.9s-.9-1.9-1.9-1.9-1.9.9-1.9,1.9.9,1.9,1.9,1.9Z"/>
        <path class="st1" d="M251.2,321.2c1.1,0,1.9-.9,1.9-1.9s-.9-1.9-1.9-1.9-1.9.9-1.9,1.9.9,1.9,1.9,1.9Z"/>
        <path class="st1" d="M257.8,321.2c1.1,0,1.9-.9,1.9-1.9s-.9-1.9-1.9-1.9-1.9.9-1.9,1.9.9,1.9,1.9,1.9Z"/>
        <path class="st1" d="M264.3,321.2c1.1,0,1.9-.9,1.9-1.9s-.9-1.9-1.9-1.9-1.9.9-1.9,1.9.9,1.9,1.9,1.9Z"/>
        <path class="st1" d="M270.8,321.2c1.1,0,1.9-.9,1.9-1.9s-.9-1.9-1.9-1.9-1.9.9-1.9,1.9.9,1.9,1.9,1.9Z"/>
        <path class="st1" d="M195.8,315.3c1.1,0,1.9-.9,1.9-1.9s-.9-1.9-1.9-1.9-1.9.9-1.9,1.9.9,1.9,1.9,1.9Z"/>
        <path class="st1" d="M202.3,315.3c1.1,0,1.9-.9,1.9-1.9s-.9-1.9-1.9-1.9-1.9.9-1.9,1.9.9,1.9,1.9,1.9Z"/>
        <path class="st1" d="M208.9,315.3c1.1,0,1.9-.9,1.9-1.9s-.9-1.9-1.9-1.9-1.9.9-1.9,1.9.9,1.9,1.9,1.9Z"/>
        <path class="st1" d="M215.4,315.3c1.1,0,1.9-.9,1.9-1.9s-.9-1.9-1.9-1.9-1.9.9-1.9,1.9.9,1.9,1.9,1.9Z"/>
        <path class="st1" d="M221.9,315.3c1.1,0,1.9-.9,1.9-1.9s-.9-1.9-1.9-1.9-1.9.9-1.9,1.9.9,1.9,1.9,1.9Z"/>
        <path class="st1" d="M228.5,315.3c1.1,0,1.9-.9,1.9-1.9s-.9-1.9-1.9-1.9-1.9.9-1.9,1.9.9,1.9,1.9,1.9Z"/>
        <path class="st1" d="M235,315.3c1.1,0,1.9-.9,1.9-1.9s-.9-1.9-1.9-1.9-1.9.9-1.9,1.9.9,1.9,1.9,1.9Z"/>
        <path class="st1" d="M241.5,315.3c1.1,0,1.9-.9,1.9-1.9s-.9-1.9-1.9-1.9-1.9.9-1.9,1.9.9,1.9,1.9,1.9Z"/>
        <path class="st1" d="M248.1,315.3c1.1,0,1.9-.9,1.9-1.9s-.9-1.9-1.9-1.9-1.9.9-1.9,1.9.9,1.9,1.9,1.9Z"/>
        <path class="st1" d="M254.6,315.3c1.1,0,1.9-.9,1.9-1.9s-.9-1.9-1.9-1.9-1.9.9-1.9,1.9.9,1.9,1.9,1.9Z"/>
        <path class="st1" d="M261.1,315.3c1.1,0,1.9-.9,1.9-1.9s-.9-1.9-1.9-1.9-1.9.9-1.9,1.9.9,1.9,1.9,1.9Z"/>
        <path class="st1" d="M267.7,315.3c1.1,0,1.9-.9,1.9-1.9s-.9-1.9-1.9-1.9-1.9.9-1.9,1.9.9,1.9,1.9,1.9Z"/>
        <path class="st1" d="M199,309.7c1.1,0,1.9-.9,1.9-1.9s-.9-1.9-1.9-1.9-1.9.9-1.9,1.9.9,1.9,1.9,1.9Z"/>
        <circle class="st0" cx="205.5" cy="307.8" r="1.9" transform="translate(-102.1 102.1) rotate(-22.5)"/>
        <path class="st1" d="M212,309.7c1.1,0,1.9-.9,1.9-1.9s-.9-1.9-1.9-1.9-1.9.9-1.9,1.9.9,1.9,1.9,1.9Z"/>
        <path class="st1" d="M218.6,309.7c1.1,0,1.9-.9,1.9-1.9s-.9-1.9-1.9-1.9-1.9.9-1.9,1.9.9,1.9,1.9,1.9Z"/>
        <path class="st1" d="M225.1,309.7c1.1,0,1.9-.9,1.9-1.9s-.9-1.9-1.9-1.9-1.9.9-1.9,1.9.9,1.9,1.9,1.9Z"/>
        <path class="st1" d="M231.6,309.7c1.1,0,1.9-.9,1.9-1.9s-.9-1.9-1.9-1.9-1.9.9-1.9,1.9.9,1.9,1.9,1.9Z"/>
        <path class="st1" d="M238.2,309.7c1.1,0,1.9-.9,1.9-1.9s-.9-1.9-1.9-1.9-1.9.9-1.9,1.9.9,1.9,1.9,1.9Z"/>
        <path class="st1" d="M244.7,309.7c1.1,0,1.9-.9,1.9-1.9s-.9-1.9-1.9-1.9-1.9.9-1.9,1.9.9,1.9,1.9,1.9Z"/>
        <path class="st1" d="M251.2,309.7c1.1,0,1.9-.9,1.9-1.9s-.9-1.9-1.9-1.9-1.9.9-1.9,1.9.9,1.9,1.9,1.9Z"/>
        <path class="st1" d="M257.8,309.7c1.1,0,1.9-.9,1.9-1.9s-.9-1.9-1.9-1.9-1.9.9-1.9,1.9.9,1.9,1.9,1.9Z"/>
        <path class="st1" d="M264.3,309.7c1.1,0,1.9-.9,1.9-1.9s-.9-1.9-1.9-1.9-1.9.9-1.9,1.9.9,1.9,1.9,1.9Z"/>
        <path class="st1" d="M270.8,309.7c1.1,0,1.9-.9,1.9-1.9s-.9-1.9-1.9-1.9-1.9.9-1.9,1.9.9,1.9,1.9,1.9Z"/>
      </g>
      <g>
        <path class="st1" d="M195.8,304.3c1.1,0,1.9-.9,1.9-1.9s-.9-1.9-1.9-1.9-1.9.9-1.9,1.9.9,1.9,1.9,1.9Z"/>
        <path class="st1" d="M202.3,304.3c1.1,0,1.9-.9,1.9-1.9s-.9-1.9-1.9-1.9-1.9.9-1.9,1.9.9,1.9,1.9,1.9Z"/>
        <path class="st1" d="M208.9,304.3c1.1,0,1.9-.9,1.9-1.9s-.9-1.9-1.9-1.9-1.9.9-1.9,1.9.9,1.9,1.9,1.9Z"/>
        <path class="st1" d="M215.4,304.3c1.1,0,1.9-.9,1.9-1.9s-.9-1.9-1.9-1.9-1.9.9-1.9,1.9.9,1.9,1.9,1.9Z"/>
        <path class="st1" d="M221.9,304.3c1.1,0,1.9-.9,1.9-1.9s-.9-1.9-1.9-1.9-1.9.9-1.9,1.9.9,1.9,1.9,1.9Z"/>
        <path class="st1" d="M228.5,304.3c1.1,0,1.9-.9,1.9-1.9s-.9-1.9-1.9-1.9-1.9.9-1.9,1.9.9,1.9,1.9,1.9Z"/>
        <path class="st1" d="M235,304.3c1.1,0,1.9-.9,1.9-1.9s-.9-1.9-1.9-1.9-1.9.9-1.9,1.9.9,1.9,1.9,1.9Z"/>
        <path class="st1" d="M241.5,304.3c1.1,0,1.9-.9,1.9-1.9s-.9-1.9-1.9-1.9-1.9.9-1.9,1.9.9,1.9,1.9,1.9Z"/>
        <path class="st1" d="M248.1,304.3c1.1,0,1.9-.9,1.9-1.9s-.9-1.9-1.9-1.9-1.9.9-1.9,1.9.9,1.9,1.9,1.9Z"/>
        <path class="st1" d="M254.6,304.3c1.1,0,1.9-.9,1.9-1.9s-.9-1.9-1.9-1.9-1.9.9-1.9,1.9.9,1.9,1.9,1.9Z"/>
        <path class="st1" d="M261.1,304.3c1.1,0,1.9-.9,1.9-1.9s-.9-1.9-1.9-1.9-1.9.9-1.9,1.9.9,1.9,1.9,1.9Z"/>
        <path class="st1" d="M267.7,304.3c1.1,0,1.9-.9,1.9-1.9s-.9-1.9-1.9-1.9-1.9.9-1.9,1.9.9,1.9,1.9,1.9Z"/>
        <path class="st1" d="M199,298.6c1.1,0,1.9-.9,1.9-1.9s-.9-1.9-1.9-1.9-1.9.9-1.9,1.9.9,1.9,1.9,1.9Z"/>
        <path class="st1" d="M205.5,298.6c1.1,0,1.9-.9,1.9-1.9s-.9-1.9-1.9-1.9-1.9.9-1.9,1.9.9,1.9,1.9,1.9Z"/>
        <path class="st1" d="M212,298.6c1.1,0,1.9-.9,1.9-1.9s-.9-1.9-1.9-1.9-1.9.9-1.9,1.9.9,1.9,1.9,1.9Z"/>
        <path class="st1" d="M218.6,298.6c1.1,0,1.9-.9,1.9-1.9s-.9-1.9-1.9-1.9-1.9.9-1.9,1.9.9,1.9,1.9,1.9Z"/>
        <path class="st1" d="M225.1,298.6c1.1,0,1.9-.9,1.9-1.9s-.9-1.9-1.9-1.9-1.9.9-1.9,1.9.9,1.9,1.9,1.9Z"/>
        <path class="st1" d="M231.6,298.6c1.1,0,1.9-.9,1.9-1.9s-.9-1.9-1.9-1.9-1.9.9-1.9,1.9.9,1.9,1.9,1.9Z"/>
        <path class="st1" d="M238.2,298.6c1.1,0,1.9-.9,1.9-1.9s-.9-1.9-1.9-1.9-1.9.9-1.9,1.9.9,1.9,1.9,1.9Z"/>
        <path class="st1" d="M244.7,298.6c1.1,0,1.9-.9,1.9-1.9s-.9-1.9-1.9-1.9-1.9.9-1.9,1.9.9,1.9,1.9,1.9Z"/>
        <path class="st1" d="M251.2,298.6c1.1,0,1.9-.9,1.9-1.9s-.9-1.9-1.9-1.9-1.9.9-1.9,1.9.9,1.9,1.9,1.9Z"/>
        <path class="st1" d="M257.8,298.6c1.1,0,1.9-.9,1.9-1.9s-.9-1.9-1.9-1.9-1.9.9-1.9,1.9.9,1.9,1.9,1.9Z"/>
        <path class="st1" d="M264.3,298.6c1.1,0,1.9-.9,1.9-1.9s-.9-1.9-1.9-1.9-1.9.9-1.9,1.9.9,1.9,1.9,1.9Z"/>
        <path class="st1" d="M270.8,298.6c1.1,0,1.9-.9,1.9-1.9s-.9-1.9-1.9-1.9-1.9.9-1.9,1.9.9,1.9,1.9,1.9Z"/>
        <path class="st1" d="M195.8,292.8c1.1,0,1.9-.9,1.9-1.9s-.9-1.9-1.9-1.9-1.9.9-1.9,1.9.9,1.9,1.9,1.9Z"/>
        <path class="st1" d="M202.3,292.8c1.1,0,1.9-.9,1.9-1.9s-.9-1.9-1.9-1.9-1.9.9-1.9,1.9.9,1.9,1.9,1.9Z"/>
        <path class="st1" d="M208.9,292.8c1.1,0,1.9-.9,1.9-1.9s-.9-1.9-1.9-1.9-1.9.9-1.9,1.9.9,1.9,1.9,1.9Z"/>
        <path class="st1" d="M215.4,292.8c1.1,0,1.9-.9,1.9-1.9s-.9-1.9-1.9-1.9-1.9.9-1.9,1.9.9,1.9,1.9,1.9Z"/>
        <path class="st1" d="M221.9,292.8c1.1,0,1.9-.9,1.9-1.9s-.9-1.9-1.9-1.9-1.9.9-1.9,1.9.9,1.9,1.9,1.9Z"/>
        <path class="st1" d="M228.5,292.8c1.1,0,1.9-.9,1.9-1.9s-.9-1.9-1.9-1.9-1.9.9-1.9,1.9.9,1.9,1.9,1.9Z"/>
        <path class="st1" d="M235,292.8c1.1,0,1.9-.9,1.9-1.9s-.9-1.9-1.9-1.9-1.9.9-1.9,1.9.9,1.9,1.9,1.9Z"/>
        <path class="st1" d="M241.5,292.8c1.1,0,1.9-.9,1.9-1.9s-.9-1.9-1.9-1.9-1.9.9-1.9,1.9.9,1.9,1.9,1.9Z"/>
        <path class="st1" d="M248.1,292.8c1.1,0,1.9-.9,1.9-1.9s-.9-1.9-1.9-1.9-1.9.9-1.9,1.9.9,1.9,1.9,1.9Z"/>
        <path class="st1" d="M254.6,292.8c1.1,0,1.9-.9,1.9-1.9s-.9-1.9-1.9-1.9-1.9.9-1.9,1.9.9,1.9,1.9,1.9Z"/>
        <path class="st1" d="M261.1,292.8c1.1,0,1.9-.9,1.9-1.9s-.9-1.9-1.9-1.9-1.9.9-1.9,1.9.9,1.9,1.9,1.9Z"/>
        <path class="st1" d="M267.7,292.8c1.1,0,1.9-.9,1.9-1.9s-.9-1.9-1.9-1.9-1.9.9-1.9,1.9.9,1.9,1.9,1.9Z"/>
        <path class="st1" d="M199,287.2c1.1,0,1.9-.9,1.9-1.9s-.9-1.9-1.9-1.9-1.9.9-1.9,1.9.9,1.9,1.9,1.9Z"/>
        <path class="st1" d="M205.5,287.2c1.1,0,1.9-.9,1.9-1.9s-.9-1.9-1.9-1.9-1.9.9-1.9,1.9.9,1.9,1.9,1.9Z"/>
        <path class="st1" d="M212,287.2c1.1,0,1.9-.9,1.9-1.9s-.9-1.9-1.9-1.9-1.9.9-1.9,1.9.9,1.9,1.9,1.9Z"/>
        <path class="st1" d="M218.6,287.2c1.1,0,1.9-.9,1.9-1.9s-.9-1.9-1.9-1.9-1.9.9-1.9,1.9.9,1.9,1.9,1.9Z"/>
        <path class="st1" d="M225.1,287.2c1.1,0,1.9-.9,1.9-1.9s-.9-1.9-1.9-1.9-1.9.9-1.9,1.9.9,1.9,1.9,1.9Z"/>
        <path class="st1" d="M231.6,287.2c1.1,0,1.9-.9,1.9-1.9s-.9-1.9-1.9-1.9-1.9.9-1.9,1.9.9,1.9,1.9,1.9Z"/>
        <path class="st1" d="M238.2,287.2c1.1,0,1.9-.9,1.9-1.9s-.9-1.9-1.9-1.9-1.9.9-1.9,1.9.9,1.9,1.9,1.9Z"/>
        <path class="st1" d="M244.7,287.2c1.1,0,1.9-.9,1.9-1.9s-.9-1.9-1.9-1.9-1.9.9-1.9,1.9.9,1.9,1.9,1.9Z"/>
        <path class="st1" d="M251.2,287.2c1.1,0,1.9-.9,1.9-1.9s-.9-1.9-1.9-1.9-1.9.9-1.9,1.9.9,1.9,1.9,1.9Z"/>
        <path class="st1" d="M257.8,287.2c1.1,0,1.9-.9,1.9-1.9s-.9-1.9-1.9-1.9-1.9.9-1.9,1.9.9,1.9,1.9,1.9Z"/>
        <path class="st1" d="M264.3,287.2c1.1,0,1.9-.9,1.9-1.9s-.9-1.9-1.9-1.9-1.9.9-1.9,1.9.9,1.9,1.9,1.9Z"/>
        <path class="st1" d="M270.8,287.2c1.1,0,1.9-.9,1.9-1.9s-.9-1.9-1.9-1.9-1.9.9-1.9,1.9.9,1.9,1.9,1.9Z"/>
      </g>
    </g>
  </g>
  <path class="st1" d="M143.5,313.4v-68.2c0-.6-.2-1-.5-1.3-.3-.3-.8-.5-1.3-.5h-13c-.5,0-1,.2-1.3.5-.3.3-.5.8-.5,1.3v68.2c0,.5.2,1,.5,1.4.3.4.7.5,1.3.6h13c.5,0,1-.2,1.3-.6.3-.4.5-.8.5-1.4Z"/>
  <path class="st1" d="M116.1,312.3v-9.4c0-.6-.1-1.1-.5-1.4-.3-.3-.8-.5-1.4-.5h-.3c-1.2,0-2.6.2-4.2.3-1.5.1-3.2.2-4.9.3-1.7,0-3.5.1-5.3.1-1.7,0-3.2-.2-4.7-.7-1.5-.5-2.7-1.4-3.8-2.6-1.1-1.2-2-2.9-2.6-5-.6-2.1-.9-4.8-.9-8v-12.2c0-3.2.3-5.9.9-8,.6-2.1,1.5-3.8,2.6-5,1.1-1.2,2.4-2.1,3.8-2.6,1.5-.5,3-.8,4.7-.7,1.8,0,3.5,0,5.3.1,1.7,0,3.4.2,4.9.3,1.5.1,2.9.2,4.2.3h.3c.6,0,1.1-.2,1.4-.5.3-.4.5-.8.5-1.4v-9.4c0-.7-.2-1.1-.6-1.4-.4-.3-.9-.5-1.6-.7-.7-.2-1.7-.5-3.1-.7-1.4-.3-3.1-.5-5-.6-1.9-.2-4-.3-6.3-.3-3,0-5.8.3-8.6,1-2.8.7-5.4,1.7-7.8,3.2-2.4,1.5-4.5,3.4-6.4,5.8-1.8,2.4-3.3,5.3-4.3,8.7-1,3.4-1.6,7.4-1.6,12.1v12.2c0,4.6.5,8.6,1.6,12.1,1,3.4,2.5,6.3,4.3,8.7,1.8,2.4,3.9,4.3,6.4,5.8,2.4,1.5,5,2.5,7.8,3.2,2.8.7,5.7,1,8.6,1,2.3,0,4.4,0,6.3-.3,1.9-.2,3.6-.4,5-.6,1.4-.3,2.4-.5,3.1-.7.7-.2,1.2-.4,1.6-.8.4-.3.6-.8.6-1.5Z"/>
  <g>
    <path class="st3" d="M313.9,264.9c-1,.5-3.1,1-5.7,1-6.1,0-10.6-3.8-10.6-10.9s4.6-11.3,11.2-11.3,4.4.6,5.1,1l-.7,2.3c-1.1-.5-2.6-.9-4.3-.9-5,0-8.4,3.2-8.4,8.9s3,8.7,8.3,8.7,3.4-.4,4.5-.9l.6,2.2Z"/>
    <path class="st3" d="M318.5,258.4c0,3.8,2.5,5.4,5.3,5.4s3.2-.4,4.3-.8l.5,2c-1,.4-2.7,1-5.1,1-4.8,0-7.6-3.1-7.6-7.8s2.7-8.3,7.3-8.3,6.4,4.4,6.4,7.3,0,1,0,1.3h-10.9ZM326.7,256.4c0-1.8-.7-4.6-3.9-4.6s-4.1,2.6-4.3,4.6h8.2Z"/>
    <path class="st3" d="M332.9,254.3c0-1.6,0-2.9-.1-4.2h2.5l.2,2.6h0c.8-1.5,2.6-2.9,5.1-2.9s5.5,1.3,5.5,6.6v9.2h-2.8v-8.9c0-2.5-.9-4.6-3.6-4.6s-3.3,1.3-3.8,2.9c-.1.4-.2.8-.2,1.3v9.3h-2.8v-11.3Z"/>
    <path class="st3" d="M353.9,245.7v4.4h4v2.1h-4v8.3c0,1.9.5,3,2.1,3s1.3,0,1.6-.2v2.1c-.4.2-1.3.4-2.4.4s-2.4-.4-3-1.2c-.8-.8-1.1-2.2-1.1-4v-8.4h-2.4v-2.1h2.4v-3.7l2.7-.7Z"/>
    <path class="st3" d="M361.1,255c0-1.8,0-3.4-.1-4.8h2.5v3h.2c.7-2.1,2.4-3.4,4.3-3.4s.5,0,.8,0v2.7c-.3,0-.6,0-1,0-2,0-3.4,1.5-3.8,3.6,0,.4-.1.8-.1,1.3v8.2h-2.8v-10.6Z"/>
    <path class="st3" d="M385.2,257.8c0,5.7-4,8.2-7.7,8.2s-7.4-3.1-7.4-8,3.4-8.2,7.7-8.2,7.4,3.2,7.4,8ZM372.9,257.9c0,3.4,1.9,5.9,4.7,5.9s4.7-2.5,4.7-6-1.3-5.9-4.6-5.9-4.8,3.1-4.8,6Z"/>
    <path class="st3" d="M398.4,244.1v21.5h-2.8v-21.5h2.8Z"/>
    <path class="st3" d="M403.4,254.3c0-1.6,0-2.9-.1-4.2h2.5l.2,2.6h0c.8-1.5,2.6-2.9,5.1-2.9s5.5,1.3,5.5,6.6v9.2h-2.8v-8.9c0-2.5-.9-4.6-3.6-4.6s-3.3,1.3-3.8,2.9c-.1.4-.2.8-.2,1.3v9.3h-2.8v-11.3Z"/>
    <path class="st3" d="M424.4,245.7v4.4h4v2.1h-4v8.3c0,1.9.5,3,2.1,3s1.3,0,1.6-.2v2.1c-.4.2-1.3.4-2.4.4s-2.4-.4-3-1.2c-.8-.8-1.1-2.2-1.1-4v-8.4h-2.4v-2.1h2.4v-3.7l2.7-.7Z"/>
    <path class="st3" d="M433,258.4c0,3.8,2.5,5.4,5.3,5.4s3.2-.4,4.3-.8l.5,2c-1,.4-2.7,1-5.1,1-4.8,0-7.6-3.1-7.6-7.8s2.7-8.3,7.3-8.3,6.4,4.4,6.4,7.3,0,1,0,1.3h-10.9ZM441.2,256.4c0-1.8-.7-4.6-3.9-4.6s-4.1,2.6-4.3,4.6h8.2Z"/>
    <path class="st3" d="M460.7,250.2c0,1.1-.1,2.4-.1,4.2v9c0,3.5-.7,5.7-2.2,7.1-1.5,1.4-3.7,1.9-5.6,1.9s-3.9-.4-5.1-1.3l.7-2.1c1,.6,2.6,1.2,4.5,1.2,2.9,0,5-1.5,5-5.4v-1.7h0c-.9,1.4-2.5,2.6-4.9,2.6-3.8,0-6.6-3.3-6.6-7.5s3.4-8.2,7-8.2,4.2,1.4,4.8,2.7h0v-2.3h2.6ZM457.8,256.3c0-.5,0-.9-.2-1.3-.5-1.6-1.9-3-3.9-3s-4.6,2.3-4.6,5.8,1.5,5.6,4.6,5.6,3.3-1.1,3.9-2.9c.2-.5.2-1,.2-1.5v-2.8Z"/>
    <path class="st3" d="M465.1,255c0-1.8,0-3.4-.1-4.8h2.5v3h.2c.7-2.1,2.4-3.4,4.3-3.4s.5,0,.8,0v2.7c-.3,0-.6,0-1,0-2,0-3.4,1.5-3.8,3.6,0,.4-.1.8-.1,1.3v8.2h-2.8v-10.6Z"/>
    <path class="st3" d="M483.9,265.6l-.2-1.9h0c-.9,1.2-2.5,2.3-4.7,2.3-3.1,0-4.7-2.2-4.7-4.4,0-3.7,3.3-5.8,9.3-5.8v-.3c0-1.3-.4-3.6-3.5-3.6s-2.9.4-4,1.2l-.6-1.9c1.3-.8,3.1-1.4,5.1-1.4,4.7,0,5.9,3.2,5.9,6.3v5.8c0,1.3,0,2.7.3,3.7h-2.6ZM483.5,257.7c-3.1,0-6.5.5-6.5,3.5s1.2,2.7,2.7,2.7,3.3-1.3,3.7-2.6c0-.3.2-.6.2-.9v-2.7Z"/>
    <path class="st3" d="M490.8,242.9h2.8v22.7h-2.8v-22.7Z"/>
    <path class="st3" d="M312.1,272.2v18.7c0,1.4,0,2.9.1,4h-2.5v-2.7h-.2c-.9,1.7-2.7,3-5.3,3-3.7,0-6.6-3.2-6.6-7.9,0-5.1,3.2-8.3,6.9-8.3s4,1.1,4.7,2.4h0v-9.2h2.8ZM309.3,285.7c0-.4,0-.8-.1-1.2-.4-1.8-1.9-3.3-4.1-3.3s-4.6,2.6-4.6,6,1.5,5.7,4.6,5.7,3.6-1.2,4.1-3.4c0-.4.1-.8.1-1.2v-2.7Z"/>
    <path class="st3" d="M318.3,287.7c0,3.8,2.5,5.4,5.3,5.4s3.2-.4,4.3-.8l.5,2c-1,.4-2.7,1-5.1,1-4.8,0-7.6-3.1-7.6-7.8s2.7-8.3,7.3-8.3,6.4,4.4,6.4,7.3,0,1,0,1.3h-10.9ZM326.5,285.6c0-1.8-.7-4.6-3.9-4.6s-4.1,2.6-4.3,4.6h8.2Z"/>
    <path class="st3" d="M357.8,285.4c-.2-3-.4-6.6-.3-9.3h0c-.7,2.5-1.6,5.2-2.7,8.2l-3.8,10.4h-2.1l-3.5-10.3c-1-3-1.9-5.8-2.5-8.4h0c0,2.7-.2,6.3-.4,9.5l-.6,9.2h-2.7l1.5-21.5h3.5l3.7,10.4c.9,2.7,1.6,5,2.2,7.3h0c.5-2.2,1.3-4.5,2.3-7.3l3.8-10.4h3.5l1.3,21.5h-2.7l-.5-9.5Z"/>
    <path class="st3" d="M368.7,275.1c0,1-.7,1.7-1.8,1.7s-1.7-.8-1.7-1.7.7-1.8,1.8-1.8,1.7.8,1.7,1.8ZM365.6,294.9v-15.5h2.8v15.5h-2.8Z"/>
    <path class="st3" d="M384.1,294.3c-.7.4-2.4.9-4.4.9-4.7,0-7.7-3.2-7.7-7.9s3.3-8.2,8.3-8.2,3.1.4,3.9.8l-.6,2.2c-.7-.4-1.7-.7-3.3-.7-3.5,0-5.5,2.6-5.5,5.8s2.3,5.8,5.4,5.8,2.7-.4,3.5-.8l.5,2.1Z"/>
    <path class="st3" d="M387.4,284.2c0-1.8,0-3.4-.1-4.8h2.5v3h.2c.7-2.1,2.4-3.4,4.3-3.4s.5,0,.8,0v2.7c-.3,0-.6,0-1,0-2,0-3.4,1.5-3.8,3.6,0,.4-.1.8-.1,1.3v8.2h-2.8v-10.6Z"/>
    <path class="st3" d="M411.5,287c0,5.7-4,8.2-7.7,8.2s-7.4-3.1-7.4-8,3.4-8.2,7.7-8.2,7.4,3.2,7.4,8ZM399.2,287.2c0,3.4,1.9,5.9,4.7,5.9s4.7-2.5,4.7-6-1.3-5.9-4.6-5.9-4.8,3.1-4.8,6Z"/>
    <path class="st3" d="M414.6,292c.8.5,2.3,1.1,3.7,1.1,2,0,3-1,3-2.3s-.8-2.1-2.9-2.8c-2.8-1-4.1-2.5-4.1-4.4s2-4.5,5.3-4.5,2.9.4,3.8,1l-.7,2c-.6-.4-1.7-.9-3.2-.9s-2.6,1-2.6,2.1.9,1.9,2.9,2.6c2.7,1,4.1,2.4,4.1,4.7s-2.1,4.6-5.8,4.6-3.3-.4-4.3-1.1l.7-2.1Z"/>
    <path class="st3" d="M438.7,294.3c-.7.4-2.4.9-4.4.9-4.7,0-7.7-3.2-7.7-7.9s3.3-8.2,8.3-8.2,3.1.4,3.9.8l-.6,2.2c-.7-.4-1.7-.7-3.3-.7-3.5,0-5.5,2.6-5.5,5.8s2.3,5.8,5.4,5.8,2.7-.4,3.5-.8l.5,2.1Z"/>
    <path class="st3" d="M455.8,287c0,5.7-4,8.2-7.7,8.2s-7.4-3.1-7.4-8,3.4-8.2,7.7-8.2,7.4,3.2,7.4,8ZM443.5,287.2c0,3.4,1.9,5.9,4.7,5.9s4.7-2.5,4.7-6-1.3-5.9-4.6-5.9-4.8,3.1-4.8,6Z"/>
    <path class="st3" d="M459.3,284.5c0-2,0-3.6-.1-5h2.5v2.7h.2c1.2-1.9,3-3,5.5-3,3.7,0,6.5,3.2,6.5,7.9s-3.4,8.3-7,8.3-3.8-.9-4.8-2.4h0v8.4h-2.8v-16.7ZM462.1,288.6c0,.4,0,.8.1,1.2.5,1.9,2.2,3.3,4.2,3.3,3,0,4.7-2.4,4.7-6s-1.6-5.8-4.6-5.8-3.7,1.4-4.2,3.5c0,.4-.2.8-.2,1.2v2.7Z"/>
    <path class="st3" d="M483.2,272.7l-3.9,4.6h-2l2.8-4.6h3.1ZM477.5,294.9v-15.5h2.8v15.5h-2.8Z"/>
    <path class="st3" d="M493.5,294.9l-.2-1.9h0c-.9,1.2-2.5,2.3-4.7,2.3-3.1,0-4.7-2.2-4.7-4.4,0-3.7,3.3-5.8,9.3-5.8v-.3c0-1.3-.4-3.6-3.5-3.6s-2.9.4-4,1.2l-.6-1.9c1.3-.8,3.1-1.4,5.1-1.4,4.7,0,5.9,3.2,5.9,6.3v5.8c0,1.3,0,2.7.3,3.7h-2.6ZM493.1,287c-3.1,0-6.5.5-6.5,3.5s1.2,2.7,2.7,2.7,3.3-1.3,3.7-2.6c0-.3.2-.6.2-.9v-2.7Z"/>
    <path class="st3" d="M310,314.1h-8.4v7.8h9.3v2.3h-12.1v-21.5h11.6v2.3h-8.8v6.8h8.4v2.3Z"/>
    <path class="st3" d="M314.4,301.5h2.8v22.7h-2.8v-22.7Z"/>
    <path class="st3" d="M323.5,316.9c0,3.8,2.5,5.4,5.3,5.4s3.2-.4,4.3-.8l.5,2c-1,.4-2.7,1-5.1,1-4.8,0-7.6-3.1-7.6-7.8s2.7-8.3,7.3-8.3,6.4,4.4,6.4,7.3,0,1,0,1.3h-10.9ZM331.8,314.9c0-1.8-.7-4.6-3.9-4.6s-4.1,2.6-4.3,4.6h8.2Z"/>
    <path class="st3" d="M349,323.6c-.7.4-2.4.9-4.4.9-4.7,0-7.7-3.2-7.7-7.9s3.3-8.2,8.3-8.2,3.1.4,3.9.8l-.6,2.2c-.7-.4-1.7-.7-3.3-.7-3.5,0-5.5,2.6-5.5,5.8s2.3,5.8,5.4,5.8,2.7-.4,3.5-.8l.5,2.1Z"/>
    <path class="st3" d="M356.1,304.2v4.4h4v2.1h-4v8.3c0,1.9.5,3,2.1,3s1.3,0,1.6-.2v2.1c-.4.2-1.3.4-2.4.4s-2.4-.4-3-1.2c-.8-.8-1.1-2.2-1.1-4v-8.4h-2.4v-2.1h2.4v-3.7l2.7-.7Z"/>
    <path class="st3" d="M363.3,313.5c0-1.8,0-3.4-.1-4.8h2.5v3h.2c.7-2.1,2.4-3.4,4.3-3.4s.5,0,.8,0v2.7c-.3,0-.6,0-1,0-2,0-3.4,1.5-3.8,3.6,0,.4-.1.8-.1,1.3v8.2h-2.8v-10.6Z"/>
    <path class="st3" d="M387.4,316.3c0,5.7-4,8.2-7.7,8.2s-7.4-3.1-7.4-8,3.4-8.2,7.7-8.2,7.4,3.2,7.4,8ZM375.1,316.4c0,3.4,1.9,5.9,4.7,5.9s4.7-2.5,4.7-6-1.3-5.9-4.6-5.9-4.8,3.1-4.8,6ZM384,302l-3.9,4.6h-2l2.8-4.6h3.1Z"/>
    <path class="st3" d="M390.9,312.9c0-1.6,0-2.9-.1-4.2h2.5l.2,2.6h0c.8-1.5,2.6-2.9,5.1-2.9s5.5,1.3,5.5,6.6v9.2h-2.8v-8.9c0-2.5-.9-4.6-3.6-4.6s-3.3,1.3-3.8,2.9c-.1.4-.2.8-.2,1.3v9.3h-2.8v-11.3Z"/>
    <path class="st3" d="M411.8,304.3c0,1-.7,1.7-1.8,1.7s-1.7-.8-1.7-1.7.7-1.8,1.8-1.8,1.7.8,1.7,1.8ZM408.7,324.1v-15.5h2.8v15.5h-2.8Z"/>
    <path class="st3" d="M427.1,323.6c-.7.4-2.4.9-4.4.9-4.7,0-7.7-3.2-7.7-7.9s3.3-8.2,8.3-8.2,3.1.4,3.9.8l-.6,2.2c-.7-.4-1.7-.7-3.3-.7-3.5,0-5.5,2.6-5.5,5.8s2.3,5.8,5.4,5.8,2.7-.4,3.5-.8l.5,2.1Z"/>
    <path class="st3" d="M439,324.1l-.2-1.9h0c-.9,1.2-2.5,2.3-4.7,2.3-3.1,0-4.7-2.2-4.7-4.4,0-3.7,3.3-5.8,9.3-5.8v-.3c0-1.3-.4-3.6-3.5-3.6s-2.9.4-4,1.2l-.6-1.9c1.3-.8,3.1-1.4,5.1-1.4,4.7,0,5.9,3.2,5.9,6.3v5.8c0,1.3,0,2.7.3,3.7h-2.6ZM438.6,316.3c-3.1,0-6.5.5-6.5,3.5s1.2,2.7,2.7,2.7,3.3-1.3,3.7-2.6c0-.3.2-.6.2-.9v-2.7Z"/>
  </g>
  <rect class="st0" x="287.9" y="264.9" width="2.3" height="52.4"/>
</svg>